<svg xmlns="http://www.w3.org/2000/svg" xmlns:xlink="http://www.w3.org/1999/xlink" width="40" zoomAndPan="magnify" viewBox="0 0 30 31.5" height="42" preserveAspectRatio="xMidYMid meet" version="1.0"><defs><clipPath id="76adc0dd88"><path d="M 0.234375 0 L 29.765625 0 L 29.765625 31 L 0.234375 31 Z M 0.234375 0 " clip-rule="nonzero"/></clipPath><clipPath id="798eddc4f1"><path d="M 15 0.738281 L 29.765625 0.738281 L 29.765625 15.503906 L 15 15.503906 Z M 15 0.738281 " clip-rule="nonzero"/></clipPath><clipPath id="a4ee208556"><path d="M 15 15.503906 L 29.765625 15.503906 L 29.765625 30.238281 L 15 30.238281 Z M 15 15.503906 " clip-rule="nonzero"/></clipPath><clipPath id="872099d4de"><path d="M 0 0.503906 L 14.765625 0.503906 L 14.765625 15.238281 L 0 15.238281 Z M 0 0.503906 " clip-rule="nonzero"/></clipPath><clipPath id="9665ffe042"><rect x="0" width="15" y="0" height="16"/></clipPath><clipPath id="9c666ea5c6"><path d="M 0.234375 15.503906 L 15 15.503906 L 15 30.238281 L 0.234375 30.238281 Z M 0.234375 15.503906 " clip-rule="nonzero"/></clipPath><clipPath id="0de9655930"><path d="M 0.234375 0.503906 L 15 0.503906 L 15 15.238281 L 0.234375 15.238281 Z M 0.234375 0.503906 " clip-rule="nonzero"/></clipPath><clipPath id="9b4f7492da"><rect x="0" width="15" y="0" height="16"/></clipPath><clipPath id="2f40b2d79a"><path d="M 0.234375 0.738281 L 15 0.738281 L 15 15.503906 L 0.234375 15.503906 Z M 0.234375 0.738281 " clip-rule="nonzero"/></clipPath><clipPath id="6fccbb75b8"><path d="M 0.234375 0.738281 L 15 0.738281 L 15 15.503906 L 0.234375 15.503906 Z M 0.234375 0.738281 " clip-rule="nonzero"/></clipPath><clipPath id="abf0804534"><rect x="0" width="15" y="0" height="16"/></clipPath><clipPath id="20e4a403ba"><rect x="0" width="30" y="0" height="31"/></clipPath></defs><g clip-path="url(#76adc0dd88)"><g transform="matrix(1, 0, 0, 1, 0.000000000000000028, -0.000000000000002887)"><g clip-path="url(#20e4a403ba)"><g clip-path="url(#798eddc4f1)"><path fill="#7cfc00" d="M 29.503906 5.246094 L 28.589844 4.332031 C 28.480469 4.226562 28.3125 4.214844 28.195312 4.308594 C 27.933594 4.519531 27.636719 4.628906 27.320312 4.628906 C 26.554688 4.628906 25.933594 4.007812 25.933594 3.242188 C 25.933594 2.925781 26.042969 2.628906 26.253906 2.367188 C 26.347656 2.25 26.335938 2.082031 26.230469 1.972656 L 25.316406 1.058594 C 25.007812 0.75 24.445312 0.75 24.136719 1.058594 L 22.554688 2.628906 L 22.960938 3.035156 C 23.074219 3.152344 23.074219 3.335938 22.960938 3.453125 C 22.902344 3.507812 22.828125 3.539062 22.75 3.539062 C 22.675781 3.539062 22.601562 3.507812 22.542969 3.453125 L 22.136719 3.046875 L 15.234375 9.902344 C 15.078125 10.058594 14.992188 10.265625 14.992188 10.492188 C 14.992188 10.71875 15.078125 10.929688 15.234375 11.085938 L 16.148438 12 C 16.253906 12.105469 16.421875 12.113281 16.539062 12.019531 C 16.820312 11.796875 17.140625 11.671875 17.445312 11.671875 C 18.210938 11.671875 18.832031 12.292969 18.832031 13.058594 C 18.832031 13.390625 18.710938 13.710938 18.496094 13.949219 C 18.390625 14.066406 18.394531 14.246094 18.503906 14.355469 L 19.417969 15.269531 C 19.574219 15.425781 19.785156 15.511719 20.011719 15.511719 C 20.238281 15.511719 20.445312 15.425781 20.601562 15.269531 L 27.480469 8.390625 L 27.082031 7.992188 C 26.964844 7.875 26.964844 7.6875 27.082031 7.574219 C 27.195312 7.457031 27.382812 7.457031 27.5 7.574219 L 27.898438 7.972656 L 29.460938 6.410156 C 29.621094 6.28125 29.722656 6.089844 29.738281 5.875 C 29.753906 5.640625 29.667969 5.410156 29.503906 5.246094 Z M 24.199219 4.691406 C 24.140625 4.75 24.066406 4.777344 23.988281 4.777344 C 23.914062 4.777344 23.839844 4.75 23.78125 4.691406 L 23.367188 4.277344 C 23.253906 4.160156 23.253906 3.976562 23.367188 3.859375 C 23.484375 3.746094 23.667969 3.746094 23.785156 3.859375 L 24.199219 4.273438 C 24.3125 4.390625 24.3125 4.574219 24.199219 4.691406 Z M 25.441406 5.933594 C 25.382812 5.988281 25.308594 6.019531 25.230469 6.019531 C 25.15625 6.019531 25.082031 5.988281 25.023438 5.933594 L 24.609375 5.519531 C 24.496094 5.402344 24.496094 5.214844 24.609375 5.101562 C 24.726562 4.984375 24.910156 4.984375 25.027344 5.101562 L 25.441406 5.515625 C 25.554688 5.628906 25.554688 5.816406 25.441406 5.933594 Z M 26.679688 7.171875 C 26.625 7.230469 26.546875 7.257812 26.472656 7.257812 C 26.398438 7.257812 26.320312 7.230469 26.265625 7.171875 L 25.851562 6.757812 C 25.734375 6.644531 25.734375 6.457031 25.851562 6.34375 C 25.964844 6.226562 26.152344 6.226562 26.265625 6.34375 L 26.679688 6.757812 C 26.796875 6.871094 26.796875 7.058594 26.679688 7.171875 Z M 26.679688 7.171875 " fill-opacity="1" fill-rule="nonzero"/></g><g clip-path="url(#a4ee208556)"><g transform="matrix(1, 0, 0, 1, 15, 15)"><g clip-path="url(#9665ffe042)"><g clip-path="url(#872099d4de)"><path fill="#7cfc00" d="M 14.503906 10.761719 L 13.589844 11.675781 C 13.480469 11.78125 13.3125 11.792969 13.195312 11.699219 C 12.933594 11.488281 12.636719 11.378906 12.320312 11.378906 C 11.554688 11.378906 10.933594 12 10.933594 12.765625 C 10.933594 13.082031 11.042969 13.378906 11.253906 13.640625 C 11.347656 13.757812 11.335938 13.925781 11.230469 14.035156 L 10.316406 14.949219 C 10.007812 15.257812 9.445312 15.257812 9.136719 14.949219 L 7.554688 13.378906 L 7.960938 12.972656 C 8.074219 12.855469 8.074219 12.671875 7.960938 12.554688 C 7.902344 12.5 7.828125 12.46875 7.75 12.46875 C 7.675781 12.46875 7.601562 12.5 7.542969 12.554688 L 7.136719 12.960938 L 0.234375 6.105469 C 0.078125 5.949219 -0.0078125 5.742188 -0.0078125 5.515625 C -0.0078125 5.289062 0.078125 5.078125 0.234375 4.921875 L 1.148438 4.007812 C 1.253906 3.902344 1.421875 3.894531 1.539062 3.988281 C 1.820312 4.210938 2.140625 4.335938 2.445312 4.335938 C 3.210938 4.335938 3.832031 3.714844 3.832031 2.949219 C 3.832031 2.617188 3.710938 2.296875 3.496094 2.058594 C 3.390625 1.941406 3.394531 1.761719 3.503906 1.652344 L 4.417969 0.738281 C 4.574219 0.582031 4.785156 0.496094 5.011719 0.496094 C 5.238281 0.496094 5.445312 0.582031 5.601562 0.738281 L 12.480469 7.617188 L 12.082031 8.015625 C 11.964844 8.132812 11.964844 8.320312 12.082031 8.433594 C 12.195312 8.550781 12.382812 8.550781 12.5 8.433594 L 12.898438 8.035156 L 14.460938 9.597656 C 14.621094 9.726562 14.722656 9.917969 14.738281 10.132812 C 14.753906 10.367188 14.667969 10.597656 14.503906 10.761719 Z M 9.199219 11.316406 C 9.140625 11.257812 9.066406 11.230469 8.988281 11.230469 C 8.914062 11.230469 8.839844 11.257812 8.78125 11.316406 L 8.367188 11.730469 C 8.253906 11.847656 8.253906 12.03125 8.367188 12.148438 C 8.484375 12.261719 8.667969 12.261719 8.785156 12.148438 L 9.199219 11.734375 C 9.3125 11.617188 9.3125 11.433594 9.199219 11.316406 Z M 10.441406 10.074219 C 10.382812 10.019531 10.308594 9.988281 10.230469 9.988281 C 10.15625 9.988281 10.082031 10.019531 10.023438 10.074219 L 9.609375 10.488281 C 9.496094 10.605469 9.496094 10.792969 9.609375 10.90625 C 9.726562 11.023438 9.910156 11.023438 10.027344 10.90625 L 10.441406 10.492188 C 10.554688 10.378906 10.554688 10.191406 10.441406 10.074219 Z M 11.679688 8.835938 C 11.625 8.777344 11.546875 8.75 11.472656 8.75 C 11.398438 8.75 11.320312 8.777344 11.265625 8.835938 L 10.851562 9.25 C 10.734375 9.363281 10.734375 9.550781 10.851562 9.664062 C 10.964844 9.78125 11.152344 9.78125 11.265625 9.664062 L 11.679688 9.25 C 11.796875 9.136719 11.796875 8.949219 11.679688 8.835938 Z M 11.679688 8.835938 " fill-opacity="1" fill-rule="nonzero"/></g></g></g></g><g clip-path="url(#9c666ea5c6)"><g transform="matrix(1, 0, 0, 1, 0.000000000000000028, 15)"><g clip-path="url(#9b4f7492da)"><g clip-path="url(#0de9655930)"><path fill="#7cfc00" d="M 0.496094 10.761719 L 1.410156 11.675781 C 1.519531 11.78125 1.6875 11.792969 1.804688 11.699219 C 2.066406 11.488281 2.363281 11.378906 2.679688 11.378906 C 3.445312 11.378906 4.066406 12 4.066406 12.765625 C 4.066406 13.082031 3.957031 13.378906 3.746094 13.640625 C 3.652344 13.757812 3.664062 13.925781 3.769531 14.035156 L 4.683594 14.949219 C 4.992188 15.257812 5.554688 15.257812 5.863281 14.949219 L 7.445312 13.378906 L 7.039062 12.972656 C 6.925781 12.855469 6.925781 12.671875 7.039062 12.554688 C 7.097656 12.5 7.171875 12.46875 7.25 12.46875 C 7.324219 12.46875 7.398438 12.5 7.457031 12.554688 L 7.863281 12.960938 L 14.765625 6.105469 C 14.921875 5.949219 15.007812 5.742188 15.007812 5.515625 C 15.007812 5.289062 14.921875 5.078125 14.765625 4.921875 L 13.851562 4.007812 C 13.746094 3.902344 13.578125 3.894531 13.460938 3.988281 C 13.179688 4.210938 12.859375 4.335938 12.554688 4.335938 C 11.789062 4.335938 11.167969 3.714844 11.167969 2.949219 C 11.167969 2.617188 11.289062 2.296875 11.503906 2.058594 C 11.609375 1.941406 11.605469 1.761719 11.496094 1.652344 L 10.582031 0.738281 C 10.425781 0.582031 10.214844 0.496094 9.988281 0.496094 C 9.761719 0.496094 9.554688 0.582031 9.398438 0.738281 L 2.519531 7.617188 L 2.917969 8.015625 C 3.035156 8.132812 3.035156 8.320312 2.917969 8.433594 C 2.804688 8.550781 2.617188 8.550781 2.5 8.433594 L 2.101562 8.035156 L 0.539062 9.597656 C 0.378906 9.726562 0.277344 9.917969 0.261719 10.132812 C 0.246094 10.367188 0.332031 10.597656 0.496094 10.761719 Z M 5.800781 11.316406 C 5.859375 11.257812 5.933594 11.230469 6.011719 11.230469 C 6.085938 11.230469 6.160156 11.257812 6.21875 11.316406 L 6.632812 11.730469 C 6.746094 11.847656 6.746094 12.03125 6.632812 12.148438 C 6.515625 12.261719 6.332031 12.261719 6.214844 12.148438 L 5.800781 11.734375 C 5.6875 11.617188 5.6875 11.433594 5.800781 11.316406 Z M 4.558594 10.074219 C 4.617188 10.019531 4.691406 9.988281 4.769531 9.988281 C 4.84375 9.988281 4.917969 10.019531 4.976562 10.074219 L 5.390625 10.488281 C 5.503906 10.605469 5.503906 10.792969 5.390625 10.90625 C 5.273438 11.023438 5.089844 11.023438 4.972656 10.90625 L 4.558594 10.492188 C 4.445312 10.378906 4.445312 10.191406 4.558594 10.074219 Z M 3.320312 8.835938 C 3.375 8.777344 3.453125 8.75 3.527344 8.75 C 3.601562 8.75 3.679688 8.777344 3.734375 8.835938 L 4.148438 9.25 C 4.265625 9.363281 4.265625 9.550781 4.148438 9.664062 C 4.035156 9.78125 3.847656 9.78125 3.734375 9.664062 L 3.320312 9.25 C 3.203125 9.136719 3.203125 8.949219 3.320312 8.835938 Z M 3.320312 8.835938 " fill-opacity="1" fill-rule="nonzero"/></g></g></g></g><g clip-path="url(#2f40b2d79a)"><g transform="matrix(1, 0, 0, 1, 0.000000000000000028, -0.000000000000002887)"><g clip-path="url(#abf0804534)"><g clip-path="url(#6fccbb75b8)"><path fill="#7cfc00" d="M 0.496094 5.246094 L 1.410156 4.332031 C 1.519531 4.226562 1.6875 4.214844 1.804688 4.308594 C 2.066406 4.519531 2.363281 4.628906 2.679688 4.628906 C 3.445312 4.628906 4.066406 4.007812 4.066406 3.242188 C 4.066406 2.925781 3.957031 2.628906 3.746094 2.367188 C 3.652344 2.25 3.664062 2.082031 3.769531 1.972656 L 4.683594 1.058594 C 4.992188 0.75 5.554688 0.75 5.863281 1.058594 L 7.445312 2.628906 L 7.039062 3.035156 C 6.925781 3.152344 6.925781 3.335938 7.039062 3.453125 C 7.097656 3.507812 7.171875 3.539062 7.25 3.539062 C 7.324219 3.539062 7.398438 3.507812 7.457031 3.453125 L 7.863281 3.046875 L 14.765625 9.902344 C 14.921875 10.058594 15.007812 10.265625 15.007812 10.492188 C 15.007812 10.71875 14.921875 10.929688 14.765625 11.085938 L 13.851562 12 C 13.746094 12.105469 13.578125 12.113281 13.460938 12.019531 C 13.179688 11.796875 12.859375 11.671875 12.554688 11.671875 C 11.789062 11.671875 11.167969 12.292969 11.167969 13.058594 C 11.167969 13.390625 11.289062 13.710938 11.503906 13.949219 C 11.609375 14.066406 11.605469 14.246094 11.496094 14.355469 L 10.582031 15.269531 C 10.425781 15.425781 10.214844 15.511719 9.988281 15.511719 C 9.761719 15.511719 9.554688 15.425781 9.398438 15.269531 L 2.519531 8.390625 L 2.917969 7.992188 C 3.035156 7.875 3.035156 7.6875 2.917969 7.574219 C 2.804688 7.457031 2.617188 7.457031 2.5 7.574219 L 2.101562 7.972656 L 0.539062 6.410156 C 0.378906 6.28125 0.277344 6.089844 0.261719 5.875 C 0.246094 5.640625 0.332031 5.410156 0.496094 5.246094 Z M 5.800781 4.691406 C 5.859375 4.75 5.933594 4.777344 6.011719 4.777344 C 6.085938 4.777344 6.160156 4.75 6.21875 4.691406 L 6.632812 4.277344 C 6.746094 4.160156 6.746094 3.976562 6.632812 3.859375 C 6.515625 3.746094 6.332031 3.746094 6.214844 3.859375 L 5.800781 4.273438 C 5.6875 4.390625 5.6875 4.574219 5.800781 4.691406 Z M 4.558594 5.933594 C 4.617188 5.988281 4.691406 6.019531 4.769531 6.019531 C 4.84375 6.019531 4.917969 5.988281 4.976562 5.933594 L 5.390625 5.519531 C 5.503906 5.402344 5.503906 5.214844 5.390625 5.101562 C 5.273438 4.984375 5.089844 4.984375 4.972656 5.101562 L 4.558594 5.515625 C 4.445312 5.628906 4.445312 5.816406 4.558594 5.933594 Z M 3.320312 7.171875 C 3.375 7.230469 3.453125 7.257812 3.527344 7.257812 C 3.601562 7.257812 3.679688 7.230469 3.734375 7.171875 L 4.148438 6.757812 C 4.265625 6.644531 4.265625 6.457031 4.148438 6.34375 C 4.035156 6.226562 3.847656 6.226562 3.734375 6.34375 L 3.320312 6.757812 C 3.203125 6.871094 3.203125 7.058594 3.320312 7.171875 Z M 3.320312 7.171875 " fill-opacity="1" fill-rule="nonzero"/></g></g></g></g></g></g></g></svg>