<svg xmlns="http://www.w3.org/2000/svg" xmlns:xlink="http://www.w3.org/1999/xlink" width="482" zoomAndPan="magnify" viewBox="0 0 361.5 358.49999" height="478" preserveAspectRatio="xMidYMid meet" version="1.0"><defs><filter x="0%" y="0%" width="100%" height="100%" id="843566000a"><feColorMatrix values="0 0 0 0 1 0 0 0 0 1 0 0 0 0 1 0 0 0 1 0" color-interpolation-filters="sRGB"/></filter><clipPath id="dbcb7b172a"><path d="M 0.00390625 0 L 361 0 L 361 358 L 0.00390625 358 Z M 0.00390625 0 " clip-rule="nonzero"/></clipPath><mask id="fb5a780179"><g filter="url(#843566000a)"><rect x="-36.15" width="433.8" fill="#000000" y="-35.849999" height="430.199987" fill-opacity="0.4"/></g></mask><clipPath id="900fa6f797"><path d="M 0.00390625 0 L 361 0 L 361 358 L 0.00390625 358 Z M 0.00390625 0 " clip-rule="nonzero"/></clipPath><clipPath id="3519667b88"><path d="M 92 260 L 180 260 L 180 358 L 92 358 Z M 92 260 " clip-rule="nonzero"/></clipPath><clipPath id="16b4d8e4e6"><path d="M 269.332031 310.773438 L 167.820312 455.449219 L 29.894531 358.671875 L 131.402344 214 Z M 269.332031 310.773438 " clip-rule="nonzero"/></clipPath><clipPath id="6cd4aab2de"><path d="M 269.332031 310.773438 L 167.820312 455.449219 L 29.894531 358.671875 L 131.402344 214 Z M 269.332031 310.773438 " clip-rule="nonzero"/></clipPath><clipPath id="d9f9c64230"><path d="M 269.332031 310.773438 L 167.820312 455.449219 L 29.894531 358.671875 L 131.402344 214 Z M 269.332031 310.773438 " clip-rule="nonzero"/></clipPath><clipPath id="777318fb06"><path d="M 178 280 L 227 280 L 227 358 L 178 358 Z M 178 280 " clip-rule="nonzero"/></clipPath><clipPath id="fed3ab2efa"><path d="M 269.332031 310.773438 L 167.820312 455.449219 L 29.894531 358.671875 L 131.402344 214 Z M 269.332031 310.773438 " clip-rule="nonzero"/></clipPath><clipPath id="fc5db6a3ba"><path d="M 269.332031 310.773438 L 167.820312 455.449219 L 29.894531 358.671875 L 131.402344 214 Z M 269.332031 310.773438 " clip-rule="nonzero"/></clipPath><clipPath id="5ebe8c506d"><path d="M 269.332031 310.773438 L 167.820312 455.449219 L 29.894531 358.671875 L 131.402344 214 Z M 269.332031 310.773438 " clip-rule="nonzero"/></clipPath><clipPath id="d58e92c06e"><path d="M 141 240 L 177 240 L 177 262 L 141 262 Z M 141 240 " clip-rule="nonzero"/></clipPath><clipPath id="c944753345"><path d="M 269.332031 310.773438 L 167.820312 455.449219 L 29.894531 358.671875 L 131.402344 214 Z M 269.332031 310.773438 " clip-rule="nonzero"/></clipPath><clipPath id="301f31dfeb"><path d="M 269.332031 310.773438 L 167.820312 455.449219 L 29.894531 358.671875 L 131.402344 214 Z M 269.332031 310.773438 " clip-rule="nonzero"/></clipPath><clipPath id="c619d1996f"><path d="M 269.332031 310.773438 L 167.820312 455.449219 L 29.894531 358.671875 L 131.402344 214 Z M 269.332031 310.773438 " clip-rule="nonzero"/></clipPath><clipPath id="8e1ee9ff18"><path d="M 184 340 L 197 340 L 197 351 L 184 351 Z M 184 340 " clip-rule="nonzero"/></clipPath><clipPath id="fc65d0b558"><path d="M 269.332031 310.773438 L 167.820312 455.449219 L 29.894531 358.671875 L 131.402344 214 Z M 269.332031 310.773438 " clip-rule="nonzero"/></clipPath><clipPath id="9bdf9f6601"><path d="M 269.332031 310.773438 L 167.820312 455.449219 L 29.894531 358.671875 L 131.402344 214 Z M 269.332031 310.773438 " clip-rule="nonzero"/></clipPath><clipPath id="86db0695fc"><path d="M 269.332031 310.773438 L 167.820312 455.449219 L 29.894531 358.671875 L 131.402344 214 Z M 269.332031 310.773438 " clip-rule="nonzero"/></clipPath><clipPath id="c448864754"><path d="M 0.00390625 106 L 144 106 L 144 349 L 0.00390625 349 Z M 0.00390625 106 " clip-rule="nonzero"/></clipPath><clipPath id="17b15fd723"><path d="M 143.171875 203.582031 L 41.660156 348.257812 L -96.265625 251.480469 L 5.242188 106.804688 Z M 143.171875 203.582031 " clip-rule="nonzero"/></clipPath><clipPath id="f6c5567ef0"><path d="M 0.00390625 69 L 111 69 L 111 198 L 0.00390625 198 Z M 0.00390625 69 " clip-rule="nonzero"/></clipPath><clipPath id="c4c4602338"><path d="M 143.171875 97.582031 L 41.660156 242.257812 L -96.265625 145.480469 L 5.242188 0.804688 Z M 143.171875 97.582031 " clip-rule="nonzero"/></clipPath><clipPath id="4ffcbf3cf2"><path d="M 4.972656 0.617188 L -96.535156 145.292969 L 41.390625 242.066406 L 142.902344 97.394531 Z M 4.972656 0.617188 " clip-rule="nonzero"/></clipPath><clipPath id="720d6ab155"><path d="M 4.972656 0.617188 L -96.535156 145.292969 L 41.390625 242.066406 L 142.902344 97.394531 Z M 4.972656 0.617188 " clip-rule="nonzero"/></clipPath><clipPath id="4dd5323cba"><path d="M 0.00390625 148 L 8 148 L 8 167 L 0.00390625 167 Z M 0.00390625 148 " clip-rule="nonzero"/></clipPath><clipPath id="4acc110f47"><path d="M 143.171875 97.582031 L 41.660156 242.257812 L -96.265625 145.480469 L 5.242188 0.804688 Z M 143.171875 97.582031 " clip-rule="nonzero"/></clipPath><clipPath id="aaca1e06a7"><path d="M 4.972656 0.617188 L -96.535156 145.292969 L 41.390625 242.066406 L 142.902344 97.394531 Z M 4.972656 0.617188 " clip-rule="nonzero"/></clipPath><clipPath id="058051b04d"><path d="M 4.972656 0.617188 L -96.535156 145.292969 L 41.390625 242.066406 L 142.902344 97.394531 Z M 4.972656 0.617188 " clip-rule="nonzero"/></clipPath><clipPath id="7341aed08d"><path d="M 0.00390625 60 L 62 60 L 62 108 L 0.00390625 108 Z M 0.00390625 60 " clip-rule="nonzero"/></clipPath><clipPath id="712f4e7292"><path d="M 143.171875 97.582031 L 41.660156 242.257812 L -96.265625 145.480469 L 5.242188 0.804688 Z M 143.171875 97.582031 " clip-rule="nonzero"/></clipPath><clipPath id="40cf468c8c"><path d="M 4.972656 0.617188 L -96.535156 145.292969 L 41.390625 242.066406 L 142.902344 97.394531 Z M 4.972656 0.617188 " clip-rule="nonzero"/></clipPath><clipPath id="a9f6d816e6"><path d="M 4.972656 0.617188 L -96.535156 145.292969 L 41.390625 242.066406 L 142.902344 97.394531 Z M 4.972656 0.617188 " clip-rule="nonzero"/></clipPath><clipPath id="a665d181aa"><path d="M 86 69 L 106 69 L 106 102 L 86 102 Z M 86 69 " clip-rule="nonzero"/></clipPath><clipPath id="e93f072d79"><path d="M 143.171875 97.582031 L 41.660156 242.257812 L -96.265625 145.480469 L 5.242188 0.804688 Z M 143.171875 97.582031 " clip-rule="nonzero"/></clipPath><clipPath id="e4305c05ad"><path d="M 4.972656 0.617188 L -96.535156 145.292969 L 41.390625 242.066406 L 142.902344 97.394531 Z M 4.972656 0.617188 " clip-rule="nonzero"/></clipPath><clipPath id="4ec0d0a85f"><path d="M 4.972656 0.617188 L -96.535156 145.292969 L 41.390625 242.066406 L 142.902344 97.394531 Z M 4.972656 0.617188 " clip-rule="nonzero"/></clipPath><clipPath id="546f096e49"><path d="M 0.00390625 80 L 3 80 L 3 94 L 0.00390625 94 Z M 0.00390625 80 " clip-rule="nonzero"/></clipPath><clipPath id="8e34e7f0e3"><path d="M 143.171875 97.582031 L 41.660156 242.257812 L -96.265625 145.480469 L 5.242188 0.804688 Z M 143.171875 97.582031 " clip-rule="nonzero"/></clipPath><clipPath id="8345b3eb8e"><path d="M 4.972656 0.617188 L -96.535156 145.292969 L 41.390625 242.066406 L 142.902344 97.394531 Z M 4.972656 0.617188 " clip-rule="nonzero"/></clipPath><clipPath id="8b92beaa6e"><path d="M 4.972656 0.617188 L -96.535156 145.292969 L 41.390625 242.066406 L 142.902344 97.394531 Z M 4.972656 0.617188 " clip-rule="nonzero"/></clipPath><clipPath id="d222d84b73"><rect x="0" width="144" y="0" height="243"/></clipPath><clipPath id="560361c934"><path d="M 136 68 L 361 68 L 361 311 L 136 311 Z M 136 68 " clip-rule="nonzero"/></clipPath><clipPath id="eddd208b3f"><path d="M 376.417969 165.441406 L 274.910156 310.113281 L 136.980469 213.339844 L 238.492188 68.664062 Z M 376.417969 165.441406 " clip-rule="nonzero"/></clipPath><clipPath id="6e20065de8"><path d="M 33 45 L 197 45 L 197 174 L 33 174 Z M 33 45 " clip-rule="nonzero"/></clipPath><clipPath id="081f5ebc5a"><path d="M 240.417969 97.441406 L 138.910156 242.113281 L 0.980469 145.339844 L 102.492188 0.664062 Z M 240.417969 97.441406 " clip-rule="nonzero"/></clipPath><clipPath id="84c27c93fb"><path d="M 139.015625 241.960938 L 240.527344 97.289062 L 102.597656 0.511719 L 1.089844 145.1875 Z M 139.015625 241.960938 " clip-rule="nonzero"/></clipPath><clipPath id="ce7f787097"><path d="M 139.015625 241.960938 L 240.527344 97.289062 L 102.597656 0.511719 L 1.089844 145.1875 Z M 139.015625 241.960938 " clip-rule="nonzero"/></clipPath><clipPath id="7df2b75858"><path d="M 136 76 L 148 76 L 148 94 L 136 94 Z M 136 76 " clip-rule="nonzero"/></clipPath><clipPath id="402362de68"><path d="M 240.417969 97.441406 L 138.910156 242.113281 L 0.980469 145.339844 L 102.492188 0.664062 Z M 240.417969 97.441406 " clip-rule="nonzero"/></clipPath><clipPath id="3e8c4fae86"><path d="M 139.015625 241.960938 L 240.527344 97.289062 L 102.597656 0.511719 L 1.089844 145.1875 Z M 139.015625 241.960938 " clip-rule="nonzero"/></clipPath><clipPath id="8f90818020"><path d="M 139.015625 241.960938 L 240.527344 97.289062 L 102.597656 0.511719 L 1.089844 145.1875 Z M 139.015625 241.960938 " clip-rule="nonzero"/></clipPath><clipPath id="21c6971975"><path d="M 145 99 L 157 99 L 157 118 L 145 118 Z M 145 99 " clip-rule="nonzero"/></clipPath><clipPath id="5463ad9a5d"><path d="M 240.417969 97.441406 L 138.910156 242.113281 L 0.980469 145.339844 L 102.492188 0.664062 Z M 240.417969 97.441406 " clip-rule="nonzero"/></clipPath><clipPath id="0b350ac4eb"><path d="M 139.015625 241.960938 L 240.527344 97.289062 L 102.597656 0.511719 L 1.089844 145.1875 Z M 139.015625 241.960938 " clip-rule="nonzero"/></clipPath><clipPath id="5ea829059d"><path d="M 139.015625 241.960938 L 240.527344 97.289062 L 102.597656 0.511719 L 1.089844 145.1875 Z M 139.015625 241.960938 " clip-rule="nonzero"/></clipPath><clipPath id="65a1ef299a"><path d="M 82 135 L 184 135 L 184 183 L 82 183 Z M 82 135 " clip-rule="nonzero"/></clipPath><clipPath id="de9586d1c8"><path d="M 240.417969 97.441406 L 138.910156 242.113281 L 0.980469 145.339844 L 102.492188 0.664062 Z M 240.417969 97.441406 " clip-rule="nonzero"/></clipPath><clipPath id="c8cc72fc95"><path d="M 139.015625 241.960938 L 240.527344 97.289062 L 102.597656 0.511719 L 1.089844 145.1875 Z M 139.015625 241.960938 " clip-rule="nonzero"/></clipPath><clipPath id="3d8bf3b34c"><path d="M 139.015625 241.960938 L 240.527344 97.289062 L 102.597656 0.511719 L 1.089844 145.1875 Z M 139.015625 241.960938 " clip-rule="nonzero"/></clipPath><clipPath id="f87b835024"><path d="M 38 140 L 58 140 L 58 174 L 38 174 Z M 38 140 " clip-rule="nonzero"/></clipPath><clipPath id="a814bf96b7"><path d="M 240.417969 97.441406 L 138.910156 242.113281 L 0.980469 145.339844 L 102.492188 0.664062 Z M 240.417969 97.441406 " clip-rule="nonzero"/></clipPath><clipPath id="e1bf1be8a7"><path d="M 139.015625 241.960938 L 240.527344 97.289062 L 102.597656 0.511719 L 1.089844 145.1875 Z M 139.015625 241.960938 " clip-rule="nonzero"/></clipPath><clipPath id="9013f90626"><path d="M 139.015625 241.960938 L 240.527344 97.289062 L 102.597656 0.511719 L 1.089844 145.1875 Z M 139.015625 241.960938 " clip-rule="nonzero"/></clipPath><clipPath id="70d839f01a"><path d="M 141 149 L 149 149 L 149 162 L 141 162 Z M 141 149 " clip-rule="nonzero"/></clipPath><clipPath id="8dd007708f"><path d="M 240.417969 97.441406 L 138.910156 242.113281 L 0.980469 145.339844 L 102.492188 0.664062 Z M 240.417969 97.441406 " clip-rule="nonzero"/></clipPath><clipPath id="989c510e45"><path d="M 139.015625 241.960938 L 240.527344 97.289062 L 102.597656 0.511719 L 1.089844 145.1875 Z M 139.015625 241.960938 " clip-rule="nonzero"/></clipPath><clipPath id="252521f4f0"><path d="M 139.015625 241.960938 L 240.527344 97.289062 L 102.597656 0.511719 L 1.089844 145.1875 Z M 139.015625 241.960938 " clip-rule="nonzero"/></clipPath><clipPath id="b693ebabe6"><rect x="0" width="225" y="0" height="243"/></clipPath><clipPath id="86145f011a"><path d="M 9 0 L 249 0 L 249 205 L 9 205 Z M 9 0 " clip-rule="nonzero"/></clipPath><clipPath id="979bbcd877"><path d="M 248.445312 60.21875 L 146.933594 204.890625 L 9.007812 108.117188 L 110.515625 -36.558594 Z M 248.445312 60.21875 " clip-rule="nonzero"/></clipPath><clipPath id="7e7c0f801f"><path d="M 89 11 L 177 11 L 177 159 L 89 159 Z M 89 11 " clip-rule="nonzero"/></clipPath><clipPath id="eed890dadb"><path d="M 239.445312 60.21875 L 137.933594 204.890625 L 0.0078125 108.117188 L 101.515625 -36.558594 Z M 239.445312 60.21875 " clip-rule="nonzero"/></clipPath><clipPath id="45b7905046"><path d="M -0.15625 107.773438 L 101.355469 -36.898438 L 239.28125 59.878906 L 137.769531 204.550781 Z M -0.15625 107.773438 " clip-rule="nonzero"/></clipPath><clipPath id="9699b248fc"><path d="M -0.15625 107.773438 L 101.355469 -36.898438 L 239.28125 59.878906 L 137.769531 204.550781 Z M -0.15625 107.773438 " clip-rule="nonzero"/></clipPath><clipPath id="1015a1ae34"><path d="M 137 48 L 156 48 L 156 55 L 137 55 Z M 137 48 " clip-rule="nonzero"/></clipPath><clipPath id="6d88152edb"><path d="M 239.445312 60.21875 L 137.933594 204.890625 L 0.0078125 108.117188 L 101.515625 -36.558594 Z M 239.445312 60.21875 " clip-rule="nonzero"/></clipPath><clipPath id="b8e3cd03d8"><path d="M -0.15625 107.773438 L 101.355469 -36.898438 L 239.28125 59.878906 L 137.769531 204.550781 Z M -0.15625 107.773438 " clip-rule="nonzero"/></clipPath><clipPath id="a669b54813"><path d="M -0.15625 107.773438 L 101.355469 -36.898438 L 239.28125 59.878906 L 137.769531 204.550781 Z M -0.15625 107.773438 " clip-rule="nonzero"/></clipPath><clipPath id="9c343575d4"><path d="M 111 48 L 131 48 L 131 55 L 111 55 Z M 111 48 " clip-rule="nonzero"/></clipPath><clipPath id="713178a3e4"><path d="M 239.445312 60.21875 L 137.933594 204.890625 L 0.0078125 108.117188 L 101.515625 -36.558594 Z M 239.445312 60.21875 " clip-rule="nonzero"/></clipPath><clipPath id="fe651d3bcc"><path d="M -0.15625 107.773438 L 101.355469 -36.898438 L 239.28125 59.878906 L 137.769531 204.550781 Z M -0.15625 107.773438 " clip-rule="nonzero"/></clipPath><clipPath id="a0388b1c35"><path d="M -0.15625 107.773438 L 101.355469 -36.898438 L 239.28125 59.878906 L 137.769531 204.550781 Z M -0.15625 107.773438 " clip-rule="nonzero"/></clipPath><clipPath id="d661328714"><path d="M 42 35 L 91 35 L 91 138 L 42 138 Z M 42 35 " clip-rule="nonzero"/></clipPath><clipPath id="5806bcbf7d"><path d="M 239.445312 60.21875 L 137.933594 204.890625 L 0.0078125 108.117188 L 101.515625 -36.558594 Z M 239.445312 60.21875 " clip-rule="nonzero"/></clipPath><clipPath id="3f6f2a1cb0"><path d="M -0.15625 107.773438 L 101.355469 -36.898438 L 239.28125 59.878906 L 137.769531 204.550781 Z M -0.15625 107.773438 " clip-rule="nonzero"/></clipPath><clipPath id="b1152cb7d0"><path d="M -0.15625 107.773438 L 101.355469 -36.898438 L 239.28125 59.878906 L 137.769531 204.550781 Z M -0.15625 107.773438 " clip-rule="nonzero"/></clipPath><clipPath id="b3ea664c70"><path d="M 92 156 L 128 156 L 128 178 L 92 178 Z M 92 156 " clip-rule="nonzero"/></clipPath><clipPath id="a9abe7f7c8"><path d="M 239.445312 60.21875 L 137.933594 204.890625 L 0.0078125 108.117188 L 101.515625 -36.558594 Z M 239.445312 60.21875 " clip-rule="nonzero"/></clipPath><clipPath id="c86451acc9"><path d="M -0.15625 107.773438 L 101.355469 -36.898438 L 239.28125 59.878906 L 137.769531 204.550781 Z M -0.15625 107.773438 " clip-rule="nonzero"/></clipPath><clipPath id="9287337a8b"><path d="M -0.15625 107.773438 L 101.355469 -36.898438 L 239.28125 59.878906 L 137.769531 204.550781 Z M -0.15625 107.773438 " clip-rule="nonzero"/></clipPath><clipPath id="221a8b8a7b"><path d="M 72 68 L 85 68 L 85 78 L 72 78 Z M 72 68 " clip-rule="nonzero"/></clipPath><clipPath id="8c3c5afb28"><path d="M 239.445312 60.21875 L 137.933594 204.890625 L 0.0078125 108.117188 L 101.515625 -36.558594 Z M 239.445312 60.21875 " clip-rule="nonzero"/></clipPath><clipPath id="5c213d5c72"><path d="M -0.15625 107.773438 L 101.355469 -36.898438 L 239.28125 59.878906 L 137.769531 204.550781 Z M -0.15625 107.773438 " clip-rule="nonzero"/></clipPath><clipPath id="a36ccc54d3"><path d="M -0.15625 107.773438 L 101.355469 -36.898438 L 239.28125 59.878906 L 137.769531 204.550781 Z M -0.15625 107.773438 " clip-rule="nonzero"/></clipPath><clipPath id="d6833de7a7"><rect x="0" width="240" y="0" height="205"/></clipPath><clipPath id="25895eeb24"><path d="M 117 299 L 153 299 L 153 336 L 117 336 Z M 117 299 " clip-rule="nonzero"/></clipPath><clipPath id="76a5c7ac50"><path d="M 117.332031 323.953125 L 128.730469 299.96875 L 152.714844 311.367188 L 141.316406 335.351562 Z M 117.332031 323.953125 " clip-rule="nonzero"/></clipPath><clipPath id="4a67aff932"><path d="M 117.332031 323.953125 L 128.730469 299.96875 L 152.714844 311.367188 L 141.316406 335.351562 Z M 117.332031 323.953125 " clip-rule="nonzero"/></clipPath><clipPath id="186267a068"><path d="M 117.332031 323.953125 L 128.730469 299.96875 L 152.714844 311.367188 L 141.316406 335.351562 Z M 117.332031 323.953125 " clip-rule="nonzero"/></clipPath><clipPath id="6b3043dd18"><path d="M 15 217 L 53 217 L 53 255 L 15 255 Z M 15 217 " clip-rule="nonzero"/></clipPath><clipPath id="7209b44916"><path d="M 37.050781 254.742188 L 15.398438 239.363281 L 30.777344 217.710938 L 52.429688 233.09375 Z M 37.050781 254.742188 " clip-rule="nonzero"/></clipPath><clipPath id="a9e3ea043a"><path d="M 37.050781 254.742188 L 15.398438 239.363281 L 30.777344 217.710938 L 52.429688 233.09375 Z M 37.050781 254.742188 " clip-rule="nonzero"/></clipPath><clipPath id="4678a50b77"><path d="M 37.050781 254.742188 L 15.398438 239.363281 L 30.777344 217.710938 L 52.429688 233.09375 Z M 37.050781 254.742188 " clip-rule="nonzero"/></clipPath><clipPath id="268844999b"><path d="M 120 85 L 156 85 L 156 121 L 120 121 Z M 120 85 " clip-rule="nonzero"/></clipPath><clipPath id="a1df413537"><path d="M 155.722656 95.824219 L 145.488281 120.332031 L 120.984375 110.097656 L 131.214844 85.59375 Z M 155.722656 95.824219 " clip-rule="nonzero"/></clipPath><clipPath id="12fc5a1c35"><path d="M 155.722656 95.824219 L 145.488281 120.332031 L 120.984375 110.097656 L 131.214844 85.59375 Z M 155.722656 95.824219 " clip-rule="nonzero"/></clipPath><clipPath id="358c2c87de"><path d="M 155.722656 95.824219 L 145.488281 120.332031 L 120.984375 110.097656 L 131.214844 85.59375 Z M 155.722656 95.824219 " clip-rule="nonzero"/></clipPath><clipPath id="4f41cb7007"><path d="M 222 168 L 253 168 L 253 199 L 222 199 Z M 222 168 " clip-rule="nonzero"/></clipPath><clipPath id="2923bf01cc"><path d="M 226.328125 198.558594 L 222.597656 172.265625 L 248.890625 168.539062 L 252.621094 194.832031 Z M 226.328125 198.558594 " clip-rule="nonzero"/></clipPath><clipPath id="939f7a449c"><path d="M 226.328125 198.558594 L 222.597656 172.265625 L 248.890625 168.539062 L 252.621094 194.832031 Z M 226.328125 198.558594 " clip-rule="nonzero"/></clipPath><clipPath id="a3a63a5867"><path d="M 226.328125 198.558594 L 222.597656 172.265625 L 248.890625 168.539062 L 252.621094 194.832031 Z M 226.328125 198.558594 " clip-rule="nonzero"/></clipPath><clipPath id="014038eabe"><rect x="0" width="361" y="0" height="358"/></clipPath><clipPath id="0e626fabab"><rect x="0" width="361" y="0" height="358"/></clipPath></defs><g clip-path="url(#dbcb7b172a)"><g mask="url(#fb5a780179)"><g transform="matrix(1, 0, 0, 1, 0, 0)"><g clip-path="url(#0e626fabab)"><g clip-path="url(#900fa6f797)"><g transform="matrix(1, 0, 0, 1, 0, 0)"><g clip-path="url(#014038eabe)"><g clip-path="url(#3519667b88)"><g clip-path="url(#16b4d8e4e6)"><g clip-path="url(#6cd4aab2de)"><g clip-path="url(#d9f9c64230)"><path fill="#000000" d="M 128.585938 264.78125 C 128.65625 262.625 126.964844 260.828125 124.8125 260.765625 L 101.195312 260.097656 C 100.160156 260.070312 99.15625 260.453125 98.402344 261.164062 C 98.207031 261.347656 98.035156 261.546875 97.882812 261.761719 C 97.449219 262.382812 97.199219 263.121094 97.175781 263.890625 L 92.941406 400.476562 C 92.910156 401.511719 93.289062 402.515625 94 403.269531 C 94.707031 404.019531 95.6875 404.460938 96.71875 404.492188 L 120.335938 405.15625 C 121.371094 405.1875 122.375 404.800781 123.128906 404.089844 C 123.878906 403.378906 124.324219 402.398438 124.355469 401.363281 C 124.417969 399.40625 125.042969 397.523438 126.160156 395.925781 C 128.105469 393.15625 131.277344 391.558594 134.648438 391.65625 C 140.152344 391.808594 144.488281 396.417969 144.320312 401.929688 C 144.285156 402.964844 144.664062 403.96875 145.375 404.71875 C 146.082031 405.472656 147.0625 405.910156 148.09375 405.941406 L 171.710938 406.605469 C 173.863281 406.667969 175.664062 404.972656 175.730469 402.816406 L 179.964844 266.230469 C 180.03125 264.074219 178.339844 262.277344 176.1875 262.21875 L 152.570312 261.550781 C 151.535156 261.519531 150.53125 261.902344 149.777344 262.613281 C 149.027344 263.328125 148.585938 264.304688 148.550781 265.34375 C 148.492188 267.304688 147.867188 269.183594 146.746094 270.78125 C 144.800781 273.550781 141.628906 275.148438 138.261719 275.054688 C 132.757812 274.898438 128.417969 270.289062 128.585938 264.78125 Z M 153.125 275.257812 C 154.367188 273.488281 155.265625 271.523438 155.796875 269.453125 L 172.046875 269.914062 L 169.097656 365.105469 L 167.148438 365.050781 C 166.125 365.019531 165.210938 365.519531 164.664062 366.300781 C 164.34375 366.753906 164.152344 367.300781 164.132812 367.894531 C 164.082031 369.511719 165.351562 370.859375 166.964844 370.902344 L 168.914062 370.957031 L 168.054688 398.691406 L 151.804688 398.234375 C 150.269531 390.242188 143.351562 384.089844 134.890625 383.847656 C 128.886719 383.679688 123.242188 386.519531 119.78125 391.449219 C 118.542969 393.21875 117.640625 395.183594 117.109375 397.253906 L 100.859375 396.792969 L 101.71875 369.0625 L 103.667969 369.117188 C 105.28125 369.164062 106.628906 367.890625 106.683594 366.269531 C 106.734375 364.65625 105.464844 363.308594 103.851562 363.261719 L 101.902344 363.207031 L 104.851562 268.011719 L 121.101562 268.472656 C 122.636719 276.464844 129.554688 282.617188 138.019531 282.859375 C 144.019531 283.027344 149.664062 280.1875 153.125 275.257812 Z M 153.125 275.257812 " fill-opacity="1" fill-rule="nonzero"/></g></g></g></g><g clip-path="url(#777318fb06)"><g clip-path="url(#fed3ab2efa)"><g clip-path="url(#fc5db6a3ba)"><g clip-path="url(#5ebe8c506d)"><path fill="#000000" d="M 197.777344 380.5625 C 198.65625 382.527344 200.960938 383.40625 202.925781 382.519531 L 224.496094 372.804688 C 226.453125 371.917969 227.332031 369.628906 226.476562 367.667969 C 226.242188 367.136719 203.039062 314.128906 189.132812 283.039062 C 188.253906 281.074219 185.949219 280.199219 183.980469 281.085938 C 183.316406 281.382812 182.773438 281.847656 182.386719 282.402344 C 181.621094 283.492188 181.429688 284.949219 182.011719 286.25 C 188.503906 300.761719 197.023438 320.050781 204.28125 336.546875 L 203.050781 337.101562 C 202.550781 337.328125 202.148438 337.671875 201.855469 338.09375 C 201.28125 338.910156 201.140625 340 201.574219 340.976562 C 202.234375 342.449219 203.964844 343.105469 205.4375 342.441406 L 206.636719 341.902344 C 211.554688 353.078125 215.660156 362.4375 217.777344 367.273438 L 202.914062 373.96875 C 201.007812 371.40625 198.421875 369.4375 195.402344 368.207031 C 195.375 368.191406 195.34375 368.179688 195.3125 368.167969 C 195.179688 368.113281 195.054688 368.039062 194.921875 367.988281 C 194.875 367.96875 194.828125 367.964844 194.785156 367.953125 C 194.738281 367.9375 194.699219 367.910156 194.652344 367.898438 C 189.269531 366.320312 184.152344 367.101562 180.242188 370.101562 C 179.914062 370.347656 179.640625 370.640625 179.417969 370.960938 C 178.464844 372.320312 178.449219 374.191406 179.507812 375.574219 C 180.816406 377.285156 183.261719 377.605469 184.976562 376.292969 C 186.820312 374.878906 189.40625 374.550781 192.269531 375.351562 C 194.738281 376.300781 196.695312 378.144531 197.777344 380.5625 Z M 197.777344 380.5625 " fill-opacity="1" fill-rule="nonzero"/></g></g></g></g><g clip-path="url(#d58e92c06e)"><g clip-path="url(#c944753345)"><g clip-path="url(#301f31dfeb)"><g clip-path="url(#c619d1996f)"><path fill="#000000" d="M 173.925781 258.84375 C 175.894531 257.953125 176.773438 255.644531 175.894531 253.679688 C 173.78125 248.957031 170.78125 243.113281 170.652344 242.871094 C 169.707031 241.027344 167.484375 240.253906 165.59375 241.105469 L 144.023438 250.820312 C 143.375 251.113281 142.824219 251.570312 142.425781 252.140625 C 142.238281 252.40625 142.085938 252.691406 141.972656 253 C 141.601562 253.96875 141.632812 255.042969 142.054688 255.988281 C 142.402344 256.761719 142.648438 257.574219 142.789062 258.40625 C 143.148438 260.53125 145.160156 261.957031 147.28125 261.59375 C 149.40625 261.226562 150.835938 259.210938 150.480469 257.085938 C 150.449219 256.894531 150.414062 256.703125 150.375 256.511719 L 165.375 249.753906 C 166.402344 251.820312 167.71875 254.535156 168.773438 256.886719 C 169.652344 258.851562 171.957031 259.730469 173.925781 258.84375 Z M 173.925781 258.84375 " fill-opacity="1" fill-rule="nonzero"/></g></g></g></g><g clip-path="url(#8e1ee9ff18)"><g clip-path="url(#fc65d0b558)"><g clip-path="url(#9bdf9f6601)"><g clip-path="url(#86db0695fc)"><path fill="#000000" d="M 196.925781 346.277344 L 194.605469 340.90625 C 194.605469 340.90625 187.40625 344.039062 186.074219 344.640625 C 185.574219 344.867188 185.167969 345.210938 184.875 345.628906 C 184.304688 346.449219 184.160156 347.539062 184.597656 348.515625 C 185.257812 349.988281 186.988281 350.644531 188.460938 349.980469 C 189.785156 349.382812 196.921875 346.277344 196.925781 346.277344 Z M 196.925781 346.277344 " fill-opacity="1" fill-rule="nonzero"/></g></g></g></g><g clip-path="url(#c448864754)"><g clip-path="url(#17b15fd723)"><g transform="matrix(1, 0, 0, 1, 0, 106)"><g clip-path="url(#d222d84b73)"><g clip-path="url(#f6c5567ef0)"><g clip-path="url(#c4c4602338)"><g clip-path="url(#4ffcbf3cf2)"><g clip-path="url(#720d6ab155)"><path fill="#000000" d="M 96.105469 117.316406 C 98.113281 116.519531 100.375 117.5 101.164062 119.503906 L 109.828125 141.484375 C 110.207031 142.445312 110.1875 143.519531 109.777344 144.472656 C 109.667969 144.714844 109.539062 144.949219 109.386719 145.164062 C 108.953125 145.78125 108.34375 146.269531 107.628906 146.550781 L -19.367188 197 C -20.332031 197.382812 -21.40625 197.367188 -22.355469 196.957031 C -23.300781 196.546875 -24.046875 195.777344 -24.429688 194.816406 L -33.089844 172.835938 C -33.46875 171.871094 -33.449219 170.796875 -33.039062 169.84375 C -32.621094 168.898438 -31.855469 168.148438 -30.890625 167.765625 C -29.070312 167.039062 -27.511719 165.8125 -26.390625 164.214844 C -24.449219 161.445312 -24.023438 157.917969 -25.261719 154.785156 C -27.28125 149.660156 -33.089844 147.148438 -38.210938 149.183594 C -39.175781 149.566406 -40.246094 149.550781 -41.195312 149.140625 C -42.144531 148.730469 -42.890625 147.960938 -43.269531 147 L -51.933594 125.015625 C -52.722656 123.011719 -51.738281 120.742188 -49.734375 119.945312 L 77.265625 69.5 C 79.269531 68.703125 81.535156 69.679688 82.324219 71.683594 L 90.984375 93.664062 C 91.363281 94.628906 91.34375 95.703125 90.933594 96.652344 C 90.519531 97.601562 89.75 98.351562 88.785156 98.734375 C 86.964844 99.460938 85.40625 100.6875 84.285156 102.285156 C 82.339844 105.054688 81.917969 108.582031 83.15625 111.714844 C 85.171875 116.839844 90.984375 119.351562 96.105469 117.316406 Z M 77.90625 97.808594 C 79.148438 96.039062 80.691406 94.523438 82.457031 93.320312 L 76.496094 78.195312 L -12.015625 113.355469 L -11.300781 115.167969 C -10.925781 116.121094 -11.082031 117.152344 -11.632812 117.929688 C -11.949219 118.382812 -12.398438 118.753906 -12.949219 118.972656 C -14.453125 119.570312 -16.152344 118.835938 -16.742188 117.332031 L -17.457031 115.519531 L -43.246094 125.761719 L -37.285156 140.886719 C -29.246094 139.609375 -21.109375 144.023438 -18 151.898438 C -15.800781 157.484375 -16.554688 163.761719 -20.011719 168.691406 C -21.253906 170.460938 -22.792969 171.976562 -24.558594 173.179688 L -18.597656 188.304688 L 7.1875 178.058594 L 6.472656 176.246094 C 5.878906 174.742188 6.621094 173.046875 8.121094 172.441406 C 9.625 171.847656 11.324219 172.582031 11.914062 174.082031 L 12.628906 175.898438 L 101.140625 140.738281 L 95.179688 125.613281 C 87.140625 126.886719 79.003906 122.476562 75.898438 114.597656 C 73.695312 109.015625 74.449219 102.738281 77.90625 97.808594 Z M 77.90625 97.808594 " fill-opacity="1" fill-rule="nonzero"/></g></g></g></g><g clip-path="url(#4dd5323cba)"><g clip-path="url(#4acc110f47)"><g clip-path="url(#aaca1e06a7)"><g clip-path="url(#058051b04d)"><path fill="#000000" d="M 7.269531 162.300781 C 7.644531 163.25 7.488281 164.28125 6.941406 165.0625 C 6.621094 165.515625 6.171875 165.886719 5.621094 166.105469 C 4.117188 166.699219 2.417969 165.964844 1.828125 164.464844 L -2.816406 152.679688 C -3.40625 151.175781 -2.664062 149.476562 -1.164062 148.875 C 0.335938 148.28125 2.035156 149.015625 2.628906 150.515625 Z M 7.269531 162.300781 " fill-opacity="1" fill-rule="nonzero"/></g></g></g></g><g clip-path="url(#7341aed08d)"><g clip-path="url(#712f4e7292)"><g clip-path="url(#40cf468c8c)"><g clip-path="url(#a9f6d816e6)"><path fill="#000000" d="M -36.308594 91.648438 C -38.453125 91.488281 -40.0625 89.617188 -39.898438 87.46875 L -38.101562 63.878906 C -37.9375 61.738281 -36.082031 60.132812 -33.945312 60.269531 C -33.367188 60.308594 24.371094 64.097656 58.339844 66.59375 C 60.484375 66.753906 62.09375 68.625 61.929688 70.773438 C 61.875 71.503906 61.625 72.167969 61.234375 72.722656 C 60.46875 73.816406 59.164062 74.488281 57.742188 74.382812 C 41.886719 73.214844 20.851562 71.769531 2.867188 70.554688 L 2.765625 71.898438 C 2.722656 72.445312 2.535156 72.945312 2.242188 73.363281 C 1.667969 74.179688 0.691406 74.683594 -0.375 74.605469 C -1.984375 74.488281 -3.191406 73.082031 -3.066406 71.472656 L -2.96875 70.160156 C -15.148438 69.339844 -25.347656 68.664062 -30.617188 68.316406 L -31.855469 84.574219 C -28.796875 85.496094 -26.066406 87.253906 -23.882812 89.675781 C -23.855469 89.695312 -23.835938 89.722656 -23.8125 89.746094 C -23.714844 89.851562 -23.605469 89.941406 -23.511719 90.054688 C -23.480469 90.089844 -23.460938 90.132812 -23.429688 90.167969 C -23.402344 90.207031 -23.363281 90.234375 -23.335938 90.273438 C -20.019531 94.800781 -19.015625 99.878906 -20.503906 104.574219 C -20.628906 104.964844 -20.808594 105.324219 -21.03125 105.644531 C -21.984375 107.003906 -23.742188 107.652344 -25.402344 107.125 C -27.453125 106.480469 -28.589844 104.289062 -27.9375 102.230469 C -27.234375 100.015625 -27.808594 97.472656 -29.535156 95.050781 C -31.269531 93.054688 -33.664062 91.839844 -36.308594 91.648438 Z M -36.308594 91.648438 " fill-opacity="1" fill-rule="nonzero"/></g></g></g></g><g clip-path="url(#a665d181aa)"><g clip-path="url(#e93f072d79)"><g clip-path="url(#e4305c05ad)"><g clip-path="url(#4ec0d0a85f)"><path fill="#000000" d="M 86.265625 72.664062 C 86.429688 70.511719 88.304688 68.898438 90.449219 69.054688 C 95.613281 69.4375 102.125 70.269531 102.398438 70.308594 C 104.453125 70.570312 105.9375 72.398438 105.78125 74.464844 L 103.980469 98.054688 C 103.929688 98.761719 103.683594 99.433594 103.28125 100.007812 C 103.097656 100.269531 102.878906 100.511719 102.632812 100.722656 C 101.847656 101.402344 100.824219 101.738281 99.792969 101.664062 C 98.945312 101.597656 98.097656 101.644531 97.269531 101.792969 C 95.148438 102.179688 93.125 100.773438 92.742188 98.652344 C 92.363281 96.53125 93.773438 94.5 95.894531 94.113281 C 96.085938 94.078125 96.277344 94.046875 96.46875 94.019531 L 97.71875 77.613281 C 95.425781 77.351562 92.429688 77.035156 89.855469 76.84375 C 87.710938 76.6875 86.101562 74.816406 86.265625 72.664062 Z M 86.265625 72.664062 " fill-opacity="1" fill-rule="nonzero"/></g></g></g></g><g clip-path="url(#546f096e49)"><g clip-path="url(#8e34e7f0e3)"><g clip-path="url(#8345b3eb8e)"><g clip-path="url(#8b92beaa6e)"><path fill="#000000" d="M -3.777344 80.785156 L 2.058594 81.136719 C 2.058594 81.136719 1.5625 88.972656 1.453125 90.429688 C 1.410156 90.976562 1.222656 91.472656 0.929688 91.890625 C 0.355469 92.710938 -0.621094 93.214844 -1.6875 93.136719 C -3.296875 93.015625 -4.503906 91.613281 -4.382812 90 C -4.269531 88.550781 -3.777344 80.785156 -3.777344 80.785156 Z M -3.777344 80.785156 " fill-opacity="1" fill-rule="nonzero"/></g></g></g></g></g></g></g></g><g clip-path="url(#560361c934)"><g clip-path="url(#eddd208b3f)"><g transform="matrix(1, 0, 0, 1, 136, 68)"><g clip-path="url(#b693ebabe6)"><g clip-path="url(#6e20065de8)"><g clip-path="url(#081f5ebc5a)"><g clip-path="url(#84c27c93fb)"><g clip-path="url(#ce7f787097)"><path fill="#000000" d="M 47.882812 125.261719 C 45.878906 126.058594 43.613281 125.078125 42.824219 123.078125 L 34.164062 101.097656 C 33.785156 100.132812 33.804688 99.058594 34.214844 98.109375 C 34.320312 97.863281 34.449219 97.632812 34.601562 97.417969 C 35.035156 96.796875 35.648438 96.3125 36.363281 96.027344 L 163.359375 45.578125 C 164.320312 45.195312 165.394531 45.210938 166.34375 45.621094 C 167.292969 46.03125 168.039062 46.804688 168.417969 47.765625 L 177.082031 69.746094 C 177.460938 70.707031 177.441406 71.785156 177.027344 72.734375 C 176.613281 73.683594 175.84375 74.433594 174.882812 74.816406 C 173.058594 75.539062 171.503906 76.765625 170.382812 78.363281 C 168.4375 81.136719 168.015625 84.660156 169.25 87.796875 C 171.269531 92.917969 177.078125 95.429688 182.203125 93.394531 C 183.164062 93.011719 184.238281 93.027344 185.1875 93.4375 C 186.136719 93.851562 186.882812 94.621094 187.261719 95.582031 L 195.921875 117.5625 C 196.710938 119.566406 195.730469 121.835938 193.722656 122.632812 L 66.726562 173.082031 C 64.722656 173.878906 62.457031 172.898438 61.667969 170.894531 L 53.003906 148.914062 C 52.625 147.953125 52.644531 146.878906 53.058594 145.925781 C 53.46875 144.976562 54.242188 144.226562 55.203125 143.84375 C 57.027344 143.121094 58.585938 141.890625 59.703125 140.296875 C 61.648438 137.523438 62.070312 134 60.835938 130.863281 C 58.816406 125.742188 53.007812 123.226562 47.882812 125.261719 Z M 66.082031 144.773438 C 64.839844 146.542969 63.300781 148.058594 61.535156 149.257812 L 67.496094 164.382812 L 156.007812 129.222656 L 155.292969 127.410156 C 154.914062 126.460938 155.074219 125.429688 155.621094 124.648438 C 155.9375 124.195312 156.386719 123.828125 156.941406 123.605469 C 158.445312 123.011719 160.140625 123.746094 160.734375 125.246094 L 161.449219 127.0625 L 187.234375 116.820312 L 181.277344 101.691406 C 173.238281 102.96875 165.097656 98.558594 161.992188 90.679688 C 159.792969 85.09375 160.542969 78.820312 164.003906 73.886719 C 165.246094 72.117188 166.785156 70.605469 168.550781 69.402344 L 162.589844 54.277344 L 136.804688 64.519531 L 137.519531 66.332031 C 138.113281 67.835938 137.371094 69.535156 135.867188 70.136719 C 134.367188 70.734375 132.667969 70 132.074219 68.496094 L 131.359375 66.683594 L 42.847656 101.84375 L 48.808594 116.964844 C 56.847656 115.691406 64.988281 120.101562 68.09375 127.980469 C 70.292969 133.566406 69.542969 139.84375 66.082031 144.773438 Z M 66.082031 144.773438 " fill-opacity="1" fill-rule="nonzero"/></g></g></g></g><g clip-path="url(#7df2b75858)"><g clip-path="url(#402362de68)"><g clip-path="url(#3e8c4fae86)"><g clip-path="url(#8f90818020)"><path fill="#000000" d="M 136.71875 80.277344 C 136.34375 79.328125 136.503906 78.296875 137.050781 77.515625 C 137.367188 77.0625 137.820312 76.695312 138.371094 76.476562 C 139.871094 75.878906 141.570312 76.613281 142.164062 78.117188 L 146.804688 89.902344 C 147.398438 91.402344 146.652344 93.105469 145.15625 93.703125 C 143.652344 94.300781 141.953125 93.566406 141.363281 92.0625 Z M 136.71875 80.277344 " fill-opacity="1" fill-rule="nonzero"/></g></g></g></g><g clip-path="url(#21c6971975)"><g clip-path="url(#5463ad9a5d)"><g clip-path="url(#0b350ac4eb)"><g clip-path="url(#5ea829059d)"><path fill="#000000" d="M 146.007812 103.84375 C 145.628906 102.894531 145.789062 101.863281 146.335938 101.085938 C 146.652344 100.632812 147.101562 100.261719 147.65625 100.042969 C 149.160156 99.445312 150.855469 100.179688 151.449219 101.683594 L 156.09375 113.464844 C 156.683594 114.96875 155.945312 116.664062 154.441406 117.269531 C 152.941406 117.863281 151.242188 117.128906 150.648438 115.628906 Z M 146.007812 103.84375 " fill-opacity="1" fill-rule="nonzero"/></g></g></g></g><g clip-path="url(#65a1ef299a)"><g clip-path="url(#de9586d1c8)"><g clip-path="url(#c8cc72fc95)"><g clip-path="url(#3d8bf3b34c)"><path fill="#000000" d="M 180.300781 150.933594 C 182.445312 151.089844 184.054688 152.960938 183.890625 155.113281 L 182.09375 178.699219 C 181.925781 180.839844 180.070312 182.449219 177.9375 182.308594 C 177.359375 182.269531 119.621094 178.484375 85.652344 175.984375 C 83.507812 175.828125 81.898438 173.957031 82.0625 171.804688 C 82.117188 171.078125 82.367188 170.410156 82.757812 169.855469 C 83.523438 168.765625 84.824219 168.09375 86.246094 168.195312 C 102.101562 169.363281 123.140625 170.8125 141.121094 172.027344 L 141.226562 170.679688 C 141.265625 170.132812 141.457031 169.636719 141.75 169.21875 C 142.320312 168.402344 143.296875 167.894531 144.363281 167.972656 C 145.976562 168.09375 147.183594 169.496094 147.058594 171.109375 L 146.957031 172.421875 C 159.140625 173.238281 169.339844 173.914062 174.609375 174.265625 L 175.847656 158.007812 C 172.789062 157.085938 170.054688 155.324219 167.871094 152.90625 C 167.847656 152.882812 167.828125 152.855469 167.804688 152.835938 C 167.707031 152.726562 167.59375 152.636719 167.5 152.527344 C 167.46875 152.492188 167.449219 152.449219 167.421875 152.410156 C 167.390625 152.375 167.355469 152.34375 167.328125 152.304688 C 164.011719 147.78125 163.003906 142.703125 164.496094 138.003906 C 164.617188 137.613281 164.796875 137.257812 165.023438 136.9375 C 165.976562 135.578125 167.730469 134.929688 169.390625 135.453125 C 171.445312 136.101562 172.582031 138.292969 171.929688 140.347656 C 171.226562 142.5625 171.796875 145.105469 173.523438 147.527344 C 175.257812 149.527344 177.65625 150.738281 180.300781 150.933594 Z M 180.300781 150.933594 " fill-opacity="1" fill-rule="nonzero"/></g></g></g></g><g clip-path="url(#f87b835024)"><g clip-path="url(#a814bf96b7)"><g clip-path="url(#e1bf1be8a7)"><g clip-path="url(#9013f90626)"><path fill="#000000" d="M 57.726562 169.914062 C 57.558594 172.070312 55.6875 173.679688 53.539062 173.523438 C 48.378906 173.144531 41.863281 172.308594 41.589844 172.273438 C 39.539062 172.007812 38.054688 170.183594 38.210938 168.117188 L 40.007812 144.527344 C 40.0625 143.816406 40.304688 143.144531 40.707031 142.574219 C 40.894531 142.308594 41.109375 142.070312 41.359375 141.855469 C 42.144531 141.179688 43.164062 140.839844 44.199219 140.917969 C 45.046875 140.980469 45.894531 140.9375 46.71875 140.785156 C 48.839844 140.398438 50.867188 141.804688 51.246094 143.925781 C 51.625 146.046875 50.21875 148.078125 48.097656 148.46875 C 47.90625 148.503906 47.714844 148.53125 47.523438 148.5625 L 46.269531 164.96875 C 48.5625 165.230469 51.5625 165.546875 54.132812 165.734375 C 56.28125 165.894531 57.890625 167.765625 57.726562 169.914062 Z M 57.726562 169.914062 " fill-opacity="1" fill-rule="nonzero"/></g></g></g></g><g clip-path="url(#70d839f01a)"><g clip-path="url(#8dd007708f)"><g clip-path="url(#989c510e45)"><g clip-path="url(#252521f4f0)"><path fill="#000000" d="M 147.769531 161.796875 L 141.929688 161.445312 C 141.929688 161.445312 142.425781 153.609375 142.539062 152.148438 C 142.582031 151.605469 142.769531 151.105469 143.0625 150.6875 C 143.632812 149.871094 144.613281 149.363281 145.679688 149.445312 C 147.289062 149.5625 148.496094 150.964844 148.371094 152.578125 C 148.261719 154.027344 147.769531 161.796875 147.769531 161.796875 Z M 147.769531 161.796875 " fill-opacity="1" fill-rule="nonzero"/></g></g></g></g></g></g></g></g><g clip-path="url(#86145f011a)"><g clip-path="url(#979bbcd877)"><g transform="matrix(1, 0, 0, 1, 9, 0)"><g clip-path="url(#d6833de7a7)"><g clip-path="url(#7e7c0f801f)"><g clip-path="url(#eed890dadb)"><g clip-path="url(#45b7905046)"><g clip-path="url(#9699b248fc)"><path fill="#000000" d="M 140.585938 153.769531 C 140.519531 155.925781 142.210938 157.722656 144.363281 157.78125 L 167.980469 158.449219 C 169.011719 158.480469 170.019531 158.097656 170.773438 157.386719 C 170.964844 157.203125 171.136719 157 171.289062 156.785156 C 171.726562 156.164062 171.972656 155.425781 171.996094 154.660156 L 176.230469 18.074219 C 176.265625 17.039062 175.882812 16.035156 175.175781 15.28125 C 174.46875 14.527344 173.488281 14.089844 172.457031 14.058594 L 148.839844 13.390625 C 147.804688 13.363281 146.800781 13.746094 146.046875 14.457031 C 145.296875 15.171875 144.851562 16.148438 144.820312 17.183594 C 144.757812 19.144531 144.132812 21.027344 143.011719 22.621094 C 141.070312 25.394531 137.898438 26.992188 134.527344 26.894531 C 129.023438 26.738281 124.683594 22.132812 124.855469 16.621094 C 124.886719 15.585938 124.507812 14.582031 123.800781 13.828125 C 123.089844 13.078125 122.113281 12.636719 121.078125 12.609375 L 97.460938 11.941406 C 95.308594 11.882812 93.511719 13.578125 93.441406 15.734375 L 89.210938 152.320312 C 89.144531 154.476562 90.835938 156.273438 92.988281 156.332031 L 116.601562 157 C 117.636719 157.03125 118.640625 156.644531 119.394531 155.933594 C 120.148438 155.222656 120.589844 154.242188 120.621094 153.207031 C 120.683594 151.246094 121.308594 149.363281 122.429688 147.769531 C 124.371094 144.996094 127.546875 143.402344 130.914062 143.496094 C 136.417969 143.652344 140.757812 148.261719 140.585938 153.769531 Z M 116.050781 143.292969 C 114.808594 145.0625 113.90625 147.027344 113.378906 149.097656 L 97.128906 148.636719 L 100.078125 53.445312 L 102.027344 53.5 C 103.046875 53.527344 103.964844 53.027344 104.511719 52.25 C 104.828125 51.796875 105.023438 51.25 105.042969 50.65625 C 105.089844 49.039062 103.824219 47.691406 102.207031 47.644531 L 100.257812 47.589844 L 101.117188 19.859375 L 117.371094 20.316406 C 118.902344 28.308594 125.820312 34.460938 134.285156 34.703125 C 140.285156 34.871094 145.933594 32.027344 149.390625 27.097656 C 150.632812 25.328125 151.535156 23.367188 152.066406 21.296875 L 168.3125 21.753906 L 167.453125 49.488281 L 165.507812 49.433594 C 163.890625 49.386719 162.546875 50.660156 162.492188 52.277344 C 162.441406 53.894531 163.710938 55.242188 165.324219 55.289062 L 167.273438 55.34375 L 164.320312 150.535156 L 148.074219 150.078125 C 146.535156 142.082031 139.621094 135.929688 131.15625 135.691406 C 125.15625 135.519531 119.507812 138.363281 116.050781 143.292969 Z M 116.050781 143.292969 " fill-opacity="1" fill-rule="nonzero"/></g></g></g></g><g clip-path="url(#1015a1ae34)"><g clip-path="url(#6d88152edb)"><g clip-path="url(#b8e3cd03d8)"><g clip-path="url(#a669b54813)"><path fill="#000000" d="M 152.664062 54.929688 C 153.6875 54.957031 154.601562 54.457031 155.148438 53.679688 C 155.464844 53.226562 155.660156 52.675781 155.679688 52.082031 C 155.730469 50.46875 154.460938 49.121094 152.84375 49.074219 L 140.183594 48.71875 C 138.570312 48.671875 137.222656 49.949219 137.171875 51.5625 C 137.121094 53.179688 138.390625 54.527344 140.003906 54.574219 Z M 152.664062 54.929688 " fill-opacity="1" fill-rule="nonzero"/></g></g></g></g><g clip-path="url(#9c343575d4)"><g clip-path="url(#713178a3e4)"><g clip-path="url(#fe651d3bcc)"><g clip-path="url(#a0388b1c35)"><path fill="#000000" d="M 127.34375 54.214844 C 128.367188 54.242188 129.28125 53.742188 129.828125 52.964844 C 130.144531 52.511719 130.339844 51.964844 130.359375 51.371094 C 130.410156 49.753906 129.140625 48.40625 127.527344 48.359375 L 114.867188 48.003906 C 113.253906 47.957031 111.90625 49.230469 111.851562 50.847656 C 111.804688 52.464844 113.070312 53.808594 114.683594 53.855469 Z M 127.34375 54.214844 " fill-opacity="1" fill-rule="nonzero"/></g></g></g></g><g clip-path="url(#d661328714)"><g clip-path="url(#5806bcbf7d)"><g clip-path="url(#3f6f2a1cb0)"><g clip-path="url(#b1152cb7d0)"><path fill="#000000" d="M 71.398438 37.984375 C 70.519531 36.023438 68.214844 35.144531 66.246094 36.03125 L 44.679688 45.746094 C 42.722656 46.628906 41.839844 48.921875 42.699219 50.878906 C 42.929688 51.414062 66.136719 104.417969 80.039062 135.511719 C 80.921875 137.472656 83.226562 138.351562 85.191406 137.464844 C 85.859375 137.164062 86.398438 136.703125 86.789062 136.148438 C 87.554688 135.054688 87.742188 133.601562 87.160156 132.300781 C 80.671875 117.789062 72.152344 98.5 64.890625 82.003906 L 66.125 81.449219 C 66.621094 81.222656 67.027344 80.875 67.320312 80.457031 C 67.894531 79.640625 68.035156 78.550781 67.601562 77.574219 C 66.941406 76.101562 65.210938 75.441406 63.734375 76.109375 L 62.535156 76.648438 C 57.621094 65.472656 53.515625 56.109375 51.394531 51.273438 L 66.261719 44.578125 C 68.167969 47.140625 70.753906 49.113281 73.773438 50.34375 C 73.800781 50.359375 73.832031 50.367188 73.863281 50.382812 C 73.996094 50.4375 74.117188 50.511719 74.253906 50.5625 C 74.296875 50.578125 74.34375 50.582031 74.390625 50.597656 C 74.433594 50.613281 74.472656 50.636719 74.519531 50.652344 C 79.90625 52.230469 85.023438 51.449219 88.933594 48.449219 C 89.257812 48.199219 89.53125 47.910156 89.757812 47.589844 C 90.710938 46.230469 90.726562 44.359375 89.664062 42.976562 C 88.359375 41.265625 85.910156 40.941406 84.199219 42.257812 C 82.355469 43.671875 79.769531 44 76.90625 43.199219 C 74.4375 42.246094 72.480469 40.40625 71.398438 37.984375 Z M 71.398438 37.984375 " fill-opacity="1" fill-rule="nonzero"/></g></g></g></g><g clip-path="url(#b3ea664c70)"><g clip-path="url(#a9abe7f7c8)"><g clip-path="url(#c86451acc9)"><g clip-path="url(#9287337a8b)"><path fill="#000000" d="M 95.25 159.707031 C 93.28125 160.59375 92.402344 162.90625 93.28125 164.871094 C 95.394531 169.59375 98.394531 175.433594 98.519531 175.679688 C 99.46875 177.523438 101.691406 178.296875 103.582031 177.445312 L 125.152344 167.730469 C 125.800781 167.4375 126.347656 166.980469 126.75 166.40625 C 126.933594 166.144531 127.085938 165.855469 127.203125 165.550781 C 127.574219 164.582031 127.542969 163.507812 127.121094 162.5625 C 126.773438 161.785156 126.523438 160.972656 126.386719 160.144531 C 126.027344 158.019531 124.015625 156.59375 121.890625 156.957031 C 119.765625 157.320312 118.339844 159.335938 118.691406 161.464844 C 118.726562 161.65625 118.761719 161.847656 118.800781 162.035156 L 103.796875 168.792969 C 102.773438 166.726562 101.453125 164.015625 100.402344 161.660156 C 99.523438 159.695312 97.214844 158.820312 95.25 159.707031 Z M 95.25 159.707031 " fill-opacity="1" fill-rule="nonzero"/></g></g></g></g><g clip-path="url(#221a8b8a7b)"><g clip-path="url(#8c3c5afb28)"><g clip-path="url(#5c213d5c72)"><g clip-path="url(#a36ccc54d3)"><path fill="#000000" d="M 72.25 72.273438 L 74.570312 77.640625 C 74.570312 77.640625 81.769531 74.507812 83.101562 73.910156 C 83.601562 73.683594 84.003906 73.335938 84.296875 72.917969 C 84.871094 72.101562 85.015625 71.011719 84.578125 70.035156 C 83.917969 68.5625 82.1875 67.902344 80.714844 68.570312 C 79.390625 69.167969 72.25 72.273438 72.25 72.273438 Z M 72.25 72.273438 " fill-opacity="1" fill-rule="nonzero"/></g></g></g></g></g></g></g></g><g clip-path="url(#25895eeb24)"><g clip-path="url(#76a5c7ac50)"><g clip-path="url(#4a67aff932)"><g clip-path="url(#186267a068)"><path fill="#000000" d="M 144.21875 315.496094 L 142.886719 314.863281 L 140.988281 318.859375 L 136.988281 316.960938 L 138.886719 312.960938 L 141.554688 314.230469 L 142.820312 311.5625 L 145.484375 312.832031 L 144.851562 314.164062 L 147.515625 315.429688 L 146.25 318.09375 L 148.914062 319.359375 L 147.648438 322.027344 L 143.652344 320.125 L 144.917969 317.460938 L 143.585938 316.828125 Z M 152.714844 311.367188 L 150.183594 316.695312 L 147.515625 315.429688 L 148.78125 312.765625 L 146.117188 311.496094 L 147.382812 308.832031 Z M 117.332031 323.953125 L 122.398438 313.292969 L 133.058594 318.359375 L 127.992188 329.019531 Z M 123.664062 310.628906 L 128.730469 299.96875 L 139.390625 305.035156 L 134.324219 315.695312 Z M 130.65625 330.285156 L 135.722656 319.625 L 146.382812 324.691406 L 141.316406 335.351562 Z M 140.15625 310.296875 L 142.054688 306.300781 L 144.71875 307.566406 L 142.820312 311.5625 Z M 123.230469 321.855469 L 125.894531 323.121094 L 127.160156 320.457031 L 124.496094 319.191406 Z M 136.554688 328.1875 L 139.21875 329.453125 L 140.484375 326.789062 L 137.820312 325.523438 Z M 129.5625 308.53125 L 132.226562 309.796875 L 133.492188 307.132812 L 130.828125 305.863281 Z M 129.5625 308.53125 " fill-opacity="1" fill-rule="nonzero"/></g></g></g></g><g clip-path="url(#6b3043dd18)"><g clip-path="url(#7209b44916)"><g clip-path="url(#a9e3ea043a)"><g clip-path="url(#4678a50b77)"><path fill="#000000" d="M 33.375 226.796875 L 32.519531 228 L 36.128906 230.5625 L 33.566406 234.171875 L 29.957031 231.605469 L 31.667969 229.203125 L 29.261719 227.492188 L 30.96875 225.085938 L 32.171875 225.941406 L 33.882812 223.535156 L 36.285156 225.246094 L 37.996094 222.839844 L 40.402344 224.546875 L 37.835938 228.15625 L 35.433594 226.449219 L 34.578125 227.648438 Z M 30.777344 217.710938 L 35.589844 221.128906 L 33.882812 223.535156 L 31.476562 221.828125 L 29.765625 224.234375 L 27.359375 222.523438 Z M 37.050781 254.742188 L 27.425781 247.90625 L 34.261719 238.285156 L 43.882812 245.121094 Z M 25.023438 246.199219 L 15.398438 239.363281 L 22.234375 229.742188 L 31.855469 236.574219 Z M 45.59375 242.714844 L 35.972656 235.878906 L 42.804688 226.257812 L 52.429688 233.09375 Z M 27.550781 229.898438 L 23.945312 227.335938 L 25.652344 224.929688 L 29.261719 227.492188 Z M 36.003906 248.570312 L 37.710938 246.164062 L 35.308594 244.457031 L 33.597656 246.859375 Z M 44.546875 236.542969 L 46.257812 234.136719 L 43.851562 232.429688 L 42.140625 234.832031 Z M 23.976562 240.027344 L 25.683594 237.621094 L 23.28125 235.910156 L 21.570312 238.316406 Z M 23.976562 240.027344 " fill-opacity="1" fill-rule="nonzero"/></g></g></g></g><g clip-path="url(#268844999b)"><g clip-path="url(#a1df413537)"><g clip-path="url(#12fc5a1c35)"><g clip-path="url(#358c2c87de)"><path fill="#000000" d="M 129.273438 105.566406 L 130.632812 106.132812 L 132.339844 102.050781 L 136.421875 103.753906 L 134.71875 107.839844 L 131.996094 106.703125 L 130.859375 109.425781 L 128.136719 108.289062 L 128.703125 106.925781 L 125.980469 105.789062 L 127.117188 103.066406 L 124.394531 101.929688 L 125.53125 99.207031 L 129.617188 100.914062 L 128.480469 103.636719 L 129.839844 104.203125 Z M 120.984375 110.097656 L 123.257812 104.652344 L 125.980469 105.789062 L 124.84375 108.511719 L 127.566406 109.648438 L 126.429688 112.371094 Z M 155.722656 95.824219 L 151.175781 106.71875 L 140.28125 102.167969 L 144.832031 91.277344 Z M 150.035156 109.441406 L 145.488281 120.332031 L 134.597656 115.785156 L 139.144531 104.890625 Z M 142.105469 90.140625 L 137.558594 101.03125 L 126.667969 96.484375 L 131.214844 85.59375 Z M 133.582031 110.5625 L 131.875 114.648438 L 129.152344 113.511719 L 130.859375 109.425781 Z M 149.933594 98.203125 L 147.210938 97.066406 L 146.070312 99.789062 L 148.796875 100.925781 Z M 136.316406 92.519531 L 133.59375 91.382812 L 132.457031 94.105469 L 135.179688 95.242188 Z M 144.246094 111.820312 L 141.523438 110.683594 L 140.386719 113.40625 L 143.109375 114.542969 Z M 144.246094 111.820312 " fill-opacity="1" fill-rule="nonzero"/></g></g></g></g><g clip-path="url(#4f41cb7007)"><g clip-path="url(#2923bf01cc)"><g clip-path="url(#939f7a449c)"><g clip-path="url(#a3a63a5867)"><path fill="#000000" d="M 244.082031 176.671875 L 242.621094 176.878906 L 243.246094 181.257812 L 238.863281 181.882812 L 238.242188 177.5 L 241.160156 177.085938 L 240.746094 174.164062 L 243.667969 173.75 L 243.875 175.210938 L 246.796875 174.796875 L 247.210938 177.714844 L 250.132812 177.300781 L 250.546875 180.222656 L 246.164062 180.84375 L 245.75 177.925781 L 244.289062 178.132812 Z M 248.890625 168.539062 L 249.71875 174.382812 L 246.796875 174.796875 L 246.382812 171.875 L 243.460938 172.289062 L 243.046875 169.367188 Z M 226.328125 198.558594 L 224.667969 186.875 L 236.355469 185.21875 L 238.011719 196.902344 Z M 224.253906 183.953125 L 222.597656 172.265625 L 234.285156 170.609375 L 235.941406 182.296875 Z M 240.933594 196.488281 L 239.277344 184.800781 L 250.960938 183.144531 L 252.621094 194.832031 Z M 237.828125 174.578125 L 237.203125 170.195312 L 240.125 169.78125 L 240.746094 174.164062 Z M 230.085938 193.554688 L 233.007812 193.140625 L 232.59375 190.21875 L 229.671875 190.636719 Z M 244.695312 191.484375 L 247.617188 191.070312 L 247.203125 188.148438 L 244.28125 188.5625 Z M 228.015625 178.949219 L 230.9375 178.535156 L 230.523438 175.613281 L 227.601562 176.027344 Z M 228.015625 178.949219 " fill-opacity="1" fill-rule="nonzero"/></g></g></g></g></g></g></g></g></g></g></g></svg>