<svg xmlns="http://www.w3.org/2000/svg" xmlns:xlink="http://www.w3.org/1999/xlink" width="333" zoomAndPan="magnify" viewBox="0 0 249.75 249.749984" height="333" preserveAspectRatio="xMidYMid meet" version="1.2"><defs><clipPath id="6c1cea0bc4"><path d="M 0 0 L 248.75 0 L 248.75 248.75 L 0 248.75 Z M 0 0 "/></clipPath><filter x="0%" y="0%" width="100%" filterUnits="objectBoundingBox" id="8bcf21173a" height="100%"><feColorMatrix values="0 0 0 0 1 0 0 0 0 1 0 0 0 0 1 0 0 0 1 0" type="matrix" in="SourceGraphic"/></filter><clipPath id="e53e71547c"><path d="M 3.6875 3.6875 L 196.996094 3.6875 L 196.996094 196.996094 L 3.6875 196.996094 Z M 3.6875 3.6875 "/></clipPath><clipPath id="7d7b4ceaba"><rect x="0" width="200" y="0" height="200"/></clipPath></defs><g id="962c5e0f8c"><g clip-rule="nonzero" clip-path="url(#6c1cea0bc4)"><path style=" stroke:none;fill-rule:nonzero;fill:#ffffff;fill-opacity:1;" d="M 165.914062 175.726562 C 153.699219 175.726562 145.230469 170.085938 143.277344 158.5625 C 136.132812 171.410156 123.734375 175.726562 111.96875 175.726562 C 95.703125 175.726562 82.105469 164.019531 82.105469 136.621094 C 82.105469 98.554688 102.117188 73.800781 124.773438 73.800781 C 139.125 73.800781 146.554688 81.394531 148.203125 88.683594 L 150.382812 76.039062 L 169.050781 76.039062 L 158.871094 142.523438 C 157.039062 154.636719 160.824219 159.480469 169.003906 159.480469 C 184.152344 159.480469 195.023438 140.734375 195.023438 109.464844 C 195.023438 69.910156 169.742188 42.757812 128.3125 42.757812 C 79.460938 42.757812 54.847656 83.34375 54.847656 128.804688 C 54.847656 164 72.253906 205.75 123.085938 205.75 C 138.554688 205.75 153.4375 203.46875 166.300781 196.976562 L 168.742188 211.144531 C 157.605469 217.757812 140.667969 220.730469 121.332031 220.730469 C 65.414062 220.730469 37.832031 178.332031 37.832031 128.925781 C 37.832031 75.875 70.402344 28.179688 128.90625 28.179688 C 179.390625 28.179688 211.082031 61.363281 211.082031 108.75 C 211.082031 150.15625 192.988281 175.726562 165.914062 175.726562 Z M 124.457031 0 C 55.722656 0 0 55.722656 0 124.457031 C 0 193.195312 55.722656 248.914062 124.457031 248.914062 C 193.195312 248.914062 248.914062 193.195312 248.914062 124.457031 C 248.914062 55.722656 193.195312 0 124.457031 0 "/></g><path style=" stroke:none;fill-rule:nonzero;fill:#ffffff;fill-opacity:1;" d="M 127.867188 90.246094 C 109.726562 90.246094 101.546875 113.191406 101.546875 135.214844 C 101.546875 152.4375 108.933594 159.054688 117.605469 159.054688 C 130.027344 159.054688 140.671875 150.402344 144.089844 121.25 C 146.210938 103.050781 142.074219 90.246094 127.867188 90.246094 "/><g mask="url(#4b723f74e2)" transform="matrix(1,0,0,1,24,24)"><g clip-path="url(#7d7b4ceaba)"><g clip-rule="nonzero" clip-path="url(#e53e71547c)"><path style="fill-rule:nonzero;fill:#7cfc00;fill-opacity:1;stroke-width:1;stroke-linecap:butt;stroke-linejoin:miter;stroke:#3fb24f;stroke-opacity:1;stroke-miterlimit:10;" d="M 191.222697 381.94649 C 85.888537 381.94649 0.49894 296.556893 0.49894 191.222733 C 0.49894 85.888572 85.888537 0.498976 191.222697 0.498976 C 296.556858 0.498976 381.946454 85.888572 381.946454 191.222733 C 381.946454 296.556893 296.556858 381.94649 191.222697 381.94649 Z M 191.222697 381.94649 " transform="matrix(0.50609,0,0,0.50609,3.688897,3.688879)"/></g><path style=" stroke:none;fill-rule:nonzero;fill:#ffffff;fill-opacity:1;" d="M 74.707031 148.605469 L 44.140625 108.902344 C 41.433594 105.386719 42.089844 100.34375 45.605469 97.636719 L 48.914062 95.089844 C 52.429688 92.382812 57.472656 93.039062 60.179688 96.554688 L 75.277344 116.160156 C 78.421875 120.246094 84.546875 120.351562 87.832031 116.382812 L 141.015625 52.105469 C 143.84375 48.6875 148.910156 48.210938 152.328125 51.039062 L 155.546875 53.699219 C 158.964844 56.527344 159.441406 61.59375 156.613281 65.011719 L 87.261719 148.824219 C 83.976562 152.796875 77.851562 152.6875 74.707031 148.605469 Z M 74.707031 148.605469 "/></g><mask id="4b723f74e2"><g filter="url(#8bcf21173a)"><rect x="0" width="249.75" y="0" height="249.749984" style="fill:#000000;fill-opacity:0.55;stroke:none;"/></g></mask></g></g></svg>