<svg xmlns="http://www.w3.org/2000/svg" xmlns:xlink="http://www.w3.org/1999/xlink" width="320" zoomAndPan="magnify" viewBox="0 0 240 68.999997" height="92" preserveAspectRatio="xMidYMid meet" version="1.0"><defs><filter x="0%" y="0%" width="100%" height="100%" id="9f99fb8e95"><feColorMatrix values="0 0 0 0 1 0 0 0 0 1 0 0 0 0 1 0 0 0 1 0" color-interpolation-filters="sRGB"/></filter><g/><clipPath id="0af733286c"><path d="M 0 0.8125 L 38.859375 0.8125 L 38.859375 39.671875 L 0 39.671875 Z M 0 0.8125 " clip-rule="nonzero"/></clipPath><mask id="c4ae095c0f"><g filter="url(#9f99fb8e95)"><rect x="-52.8" width="345.6" fill="#000000" y="-30.179999" height="99.359996" fill-opacity="0.55"/></g></mask><clipPath id="9064273160"><path d="M 1.296875 1.105469 L 31.410156 1.105469 L 31.410156 31.222656 L 1.296875 31.222656 Z M 1.296875 1.105469 " clip-rule="nonzero"/></clipPath><clipPath id="76a6c49f38"><rect x="0" width="32" y="0" height="32"/></clipPath><clipPath id="42faf0d15d"><rect x="0" width="39" y="0" height="40"/></clipPath><clipPath id="e5db7b0730"><path d="M 97.800781 15.8125 L 136.050781 15.8125 L 136.050781 54.0625 L 97.800781 54.0625 Z M 97.800781 15.8125 " clip-rule="nonzero"/></clipPath><clipPath id="83f18e41e7"><path d="M 0.753906 0.8125 L 39.480469 0.8125 L 39.480469 39.671875 L 0.753906 39.671875 Z M 0.753906 0.8125 " clip-rule="nonzero"/></clipPath><mask id="51ce08c294"><g filter="url(#9f99fb8e95)"><rect x="-91.8" width="345.6" fill="#000000" y="-30.179999" height="99.359996" fill-opacity="0.55"/></g></mask><clipPath id="d553c896cd"><path d="M 1.050781 1.105469 L 31.167969 1.105469 L 31.167969 31.222656 L 1.050781 31.222656 Z M 1.050781 1.105469 " clip-rule="nonzero"/></clipPath><clipPath id="af64fbb957"><rect x="0" width="32" y="0" height="32"/></clipPath><clipPath id="c0640e9a2a"><rect x="0" width="40" y="0" height="40"/></clipPath><clipPath id="10a39df4f0"><path d="M 0.3125 0.925781 L 83.863281 0.925781 L 83.863281 47.558594 L 0.3125 47.558594 Z M 0.3125 0.925781 " clip-rule="nonzero"/></clipPath><clipPath id="d42afd2de4"><path d="M 63 11 L 72.480469 11 L 72.480469 25 L 63 25 Z M 63 11 " clip-rule="nonzero"/></clipPath><clipPath id="6b04efaab0"><rect x="0" width="73" y="0" height="33"/></clipPath><clipPath id="a5f5617a68"><rect x="0" width="84" y="0" height="48"/></clipPath></defs><g transform="matrix(1, 0, 0, 1, 0, 15)"><g clip-path="url(#42faf0d15d)"><g clip-path="url(#0af733286c)"><path fill="#3c3c3b" d="M 25.730469 28.0625 C 23.835938 28.0625 22.523438 27.1875 22.21875 25.402344 C 21.113281 27.394531 19.1875 28.0625 17.363281 28.0625 C 14.839844 28.0625 12.734375 26.246094 12.734375 22 C 12.734375 16.09375 15.835938 12.257812 19.351562 12.257812 C 21.574219 12.257812 22.726562 13.433594 22.984375 14.566406 L 23.320312 12.605469 L 26.214844 12.605469 L 24.636719 22.914062 C 24.351562 24.792969 24.941406 25.542969 26.210938 25.542969 C 28.558594 25.542969 30.246094 22.636719 30.246094 17.789062 C 30.246094 11.652344 26.324219 7.441406 19.898438 7.441406 C 12.324219 7.441406 8.507812 13.738281 8.507812 20.785156 C 8.507812 26.246094 11.203125 32.71875 19.089844 32.71875 C 21.488281 32.71875 23.792969 32.367188 25.789062 31.359375 L 26.167969 33.554688 C 24.441406 34.582031 21.816406 35.042969 18.816406 35.042969 C 10.144531 35.042969 5.867188 28.46875 5.867188 20.804688 C 5.867188 12.578125 10.917969 5.183594 19.992188 5.183594 C 27.820312 5.183594 32.734375 10.328125 32.734375 17.675781 C 32.734375 24.097656 29.929688 28.0625 25.730469 28.0625 Z M 19.300781 0.8125 C 8.640625 0.8125 0 9.453125 0 20.113281 C 0 30.773438 8.640625 39.414062 19.300781 39.414062 C 29.960938 39.414062 38.601562 30.773438 38.601562 20.113281 C 38.601562 9.453125 29.960938 0.8125 19.300781 0.8125 " fill-opacity="1" fill-rule="nonzero"/></g><path fill="#3c3c3b" d="M 19.828125 14.808594 C 17.015625 14.808594 15.746094 18.367188 15.746094 21.78125 C 15.746094 24.453125 16.894531 25.476562 18.238281 25.476562 C 20.164062 25.476562 21.816406 24.136719 22.34375 19.613281 C 22.675781 16.792969 22.03125 14.808594 19.828125 14.808594 " fill-opacity="1" fill-rule="nonzero"/><g mask="url(#c4ae095c0f)"><g transform="matrix(1, 0, 0, 1, 3, 4)"><g clip-path="url(#76a6c49f38)"><g clip-path="url(#9064273160)"><path stroke-linecap="butt" transform="matrix(0.078518, 0, 0, 0.078518, 1.295626, 1.107322)" fill-opacity="1" fill="#7cfc00" fill-rule="nonzero" stroke-linejoin="miter" d="M 191.204053 381.95469 C 85.883913 381.95469 0.513408 296.534435 0.513408 191.214295 C 0.513408 85.894156 85.883913 0.52365 191.204053 0.52365 C 296.573942 0.52365 381.944448 85.894156 381.944448 191.214295 C 381.944448 296.534435 296.573942 381.95469 191.204053 381.95469 Z M 191.204053 381.95469 " stroke="#3fb24f" stroke-width="1" stroke-opacity="1" stroke-miterlimit="10"/></g><path fill="#ffffff" d="M 12.3125 23.589844 L 7.570312 17.429688 C 7.152344 16.886719 7.253906 16.101562 7.796875 15.683594 L 8.3125 15.289062 C 8.859375 14.867188 9.640625 14.96875 10.058594 15.515625 L 12.402344 18.558594 C 12.890625 19.191406 13.839844 19.207031 14.351562 18.589844 L 22.601562 8.617188 C 23.039062 8.089844 23.824219 8.015625 24.355469 8.453125 L 24.855469 8.867188 C 25.386719 9.304688 25.460938 10.089844 25.019531 10.621094 L 14.261719 23.625 C 13.753906 24.242188 12.800781 24.222656 12.3125 23.589844 Z M 12.3125 23.589844 " fill-opacity="1" fill-rule="nonzero"/></g></g></g></g></g><g clip-path="url(#e5db7b0730)"><path fill="#7cfc00" d="M 123.539062 43.070312 C 121.644531 43.070312 120.328125 42.195312 120.027344 40.410156 C 118.917969 42.402344 116.996094 43.070312 115.167969 43.070312 C 112.648438 43.070312 110.539062 41.253906 110.539062 37.003906 C 110.539062 31.101562 113.640625 27.261719 117.15625 27.261719 C 119.382812 27.261719 120.535156 28.4375 120.792969 29.570312 L 121.128906 27.609375 L 124.023438 27.609375 L 122.445312 37.921875 C 122.160156 39.800781 122.75 40.550781 124.019531 40.550781 C 126.367188 40.550781 128.054688 37.644531 128.054688 32.792969 C 128.054688 26.65625 124.132812 22.445312 117.707031 22.445312 C 110.125 22.445312 106.308594 28.742188 106.308594 35.792969 C 106.308594 41.253906 109.007812 47.730469 116.894531 47.730469 C 119.292969 47.730469 121.601562 47.375 123.597656 46.367188 L 123.976562 48.566406 C 122.25 49.59375 119.621094 50.054688 116.621094 50.054688 C 107.949219 50.054688 103.667969 43.476562 103.667969 35.8125 C 103.667969 27.582031 108.722656 20.183594 117.796875 20.183594 C 125.628906 20.183594 130.546875 25.332031 130.546875 32.683594 C 130.546875 39.105469 127.738281 43.070312 123.539062 43.070312 Z M 117.105469 15.8125 C 106.445312 15.8125 97.800781 24.457031 97.800781 35.117188 C 97.800781 45.78125 106.445312 54.425781 117.105469 54.425781 C 127.769531 54.425781 136.414062 45.78125 136.414062 35.117188 C 136.414062 24.457031 127.769531 15.8125 117.105469 15.8125 " fill-opacity="1" fill-rule="nonzero"/></g><path fill="#7cfc00" d="M 117.636719 29.8125 C 114.824219 29.8125 113.554688 33.371094 113.554688 36.789062 C 113.554688 39.457031 114.699219 40.484375 116.042969 40.484375 C 117.972656 40.484375 119.621094 39.144531 120.152344 34.621094 C 120.480469 31.796875 119.839844 29.8125 117.636719 29.8125 " fill-opacity="1" fill-rule="nonzero"/><g transform="matrix(1, 0, 0, 1, 39, 15)"><g clip-path="url(#c0640e9a2a)"><g clip-path="url(#83f18e41e7)"><path fill="#3c3c3b" d="M 26.484375 28.0625 C 24.589844 28.0625 23.277344 27.1875 22.972656 25.402344 C 21.867188 27.394531 19.941406 28.0625 18.117188 28.0625 C 15.597656 28.0625 13.488281 26.246094 13.488281 22 C 13.488281 16.09375 16.589844 12.257812 20.105469 12.257812 C 22.328125 12.257812 23.480469 13.433594 23.738281 14.566406 L 24.074219 12.605469 L 26.96875 12.605469 L 25.390625 22.914062 C 25.109375 24.792969 25.695312 25.542969 26.964844 25.542969 C 29.3125 25.542969 31 22.636719 31 17.789062 C 31 11.652344 27.078125 7.441406 20.652344 7.441406 C 13.078125 7.441406 9.261719 13.738281 9.261719 20.785156 C 9.261719 26.246094 11.960938 32.71875 19.84375 32.71875 C 22.242188 32.71875 24.550781 32.367188 26.542969 31.359375 L 26.921875 33.554688 C 25.195312 34.582031 22.570312 35.042969 19.570312 35.042969 C 10.898438 35.042969 6.621094 28.46875 6.621094 20.804688 C 6.621094 12.578125 11.671875 5.183594 20.746094 5.183594 C 28.574219 5.183594 33.488281 10.328125 33.488281 17.675781 C 33.488281 24.097656 30.683594 28.0625 26.484375 28.0625 Z M 20.054688 0.8125 C 9.394531 0.8125 0.753906 9.453125 0.753906 20.113281 C 0.753906 30.773438 9.394531 39.414062 20.054688 39.414062 C 30.714844 39.414062 39.355469 30.773438 39.355469 20.113281 C 39.355469 9.453125 30.714844 0.8125 20.054688 0.8125 " fill-opacity="1" fill-rule="nonzero"/></g><path fill="#3c3c3b" d="M 20.582031 14.808594 C 17.769531 14.808594 16.5 18.367188 16.5 21.78125 C 16.5 24.453125 17.648438 25.476562 18.992188 25.476562 C 20.917969 25.476562 22.570312 24.136719 23.101562 19.613281 C 23.429688 16.792969 22.789062 14.808594 20.582031 14.808594 " fill-opacity="1" fill-rule="nonzero"/><g mask="url(#51ce08c294)"><g transform="matrix(1, 0, 0, 1, 4, 4)"><g clip-path="url(#af64fbb957)"><g clip-path="url(#d553c896cd)"><path stroke-linecap="butt" transform="matrix(0.078518, 0, 0, 0.078518, 1.049761, 1.107322)" fill-opacity="1" fill="#7cfc00" fill-rule="nonzero" stroke-linejoin="miter" d="M 191.201136 381.95469 C 85.880996 381.95469 0.510491 296.534435 0.510491 191.214295 C 0.510491 85.894156 85.880996 0.52365 191.201136 0.52365 C 296.571025 0.52365 381.941531 85.894156 381.941531 191.214295 C 381.941531 296.534435 296.571025 381.95469 191.201136 381.95469 Z M 191.201136 381.95469 " stroke="#3fb24f" stroke-width="1" stroke-opacity="1" stroke-miterlimit="10"/></g><path fill="#ffffff" d="M 12.066406 23.589844 L 7.324219 17.429688 C 6.90625 16.886719 7.007812 16.101562 7.554688 15.683594 L 8.066406 15.289062 C 8.613281 14.867188 9.394531 14.96875 9.8125 15.515625 L 12.15625 18.558594 C 12.644531 19.191406 13.59375 19.207031 14.105469 18.589844 L 22.355469 8.617188 C 22.792969 8.089844 23.582031 8.015625 24.109375 8.453125 L 24.609375 8.867188 C 25.140625 9.304688 25.214844 10.089844 24.777344 10.621094 L 14.015625 23.625 C 13.507812 24.242188 12.554688 24.222656 12.066406 23.589844 Z M 12.066406 23.589844 " fill-opacity="1" fill-rule="nonzero"/></g></g></g></g></g><g transform="matrix(1, 0, 0, 1, 156, 10)"><g clip-path="url(#a5f5617a68)"><g clip-path="url(#10a39df4f0)"><path fill="#7cfc00" d="M 74.328125 1.675781 C 74.769531 6.386719 78.492188 10.109375 83.203125 10.554688 L 83.203125 12.011719 C 82.449219 12.3125 81.914062 13.046875 81.914062 13.90625 C 81.914062 14.765625 82.449219 15.5 83.203125 15.800781 L 83.203125 17.160156 C 82.449219 17.460938 81.914062 18.195312 81.914062 19.054688 C 81.914062 19.914062 82.449219 20.652344 83.203125 20.949219 L 83.203125 22.308594 C 82.449219 22.609375 81.914062 23.347656 81.914062 24.207031 C 81.914062 25.0625 82.449219 25.800781 83.203125 26.101562 L 83.203125 27.460938 C 82.449219 27.757812 81.914062 28.496094 81.914062 29.355469 C 81.914062 30.214844 82.449219 30.949219 83.203125 31.25 L 83.203125 32.609375 C 82.449219 32.90625 81.914062 33.644531 81.914062 34.503906 C 81.914062 35.363281 82.449219 36.097656 83.203125 36.398438 L 83.203125 37.855469 C 78.46875 38.316406 74.675781 42.183594 74.308594 46.925781 L 10.191406 46.925781 C 9.824219 42.082031 5.945312 38.203125 1.101562 37.835938 L 1.101562 36.464844 C 1.957031 36.222656 2.585938 35.433594 2.585938 34.503906 C 2.585938 33.574219 1.957031 32.785156 1.101562 32.542969 L 1.101562 31.316406 C 1.957031 31.074219 2.585938 30.285156 2.585938 29.355469 C 2.585938 28.425781 1.957031 27.636719 1.101562 27.394531 L 1.101562 26.167969 C 1.957031 25.925781 2.585938 25.136719 2.585938 24.207031 C 2.585938 23.277344 1.957031 22.488281 1.101562 22.246094 L 1.101562 21.019531 C 1.957031 20.777344 2.585938 19.988281 2.585938 19.058594 C 2.585938 18.125 1.957031 17.339844 1.101562 17.097656 L 1.101562 15.871094 C 1.957031 15.625 2.585938 14.839844 2.585938 13.910156 C 2.585938 12.976562 1.957031 12.191406 1.101562 11.949219 L 1.101562 10.574219 C 5.847656 10.210938 9.714844 6.414062 10.171875 1.675781 L 74.328125 1.675781 M 75.035156 0.925781 L 9.464844 0.925781 C 9.363281 5.851562 5.304688 9.851562 0.351562 9.851562 L 0.351562 12.640625 C 0.417969 12.632812 0.480469 12.621094 0.546875 12.621094 C 1.257812 12.621094 1.835938 13.199219 1.835938 13.910156 C 1.835938 14.621094 1.257812 15.195312 0.546875 15.195312 C 0.480469 15.195312 0.417969 15.1875 0.351562 15.175781 L 0.351562 17.789062 C 0.417969 17.78125 0.480469 17.769531 0.546875 17.769531 C 1.257812 17.769531 1.835938 18.347656 1.835938 19.058594 C 1.835938 19.769531 1.257812 20.34375 0.546875 20.34375 C 0.480469 20.34375 0.417969 20.335938 0.351562 20.324219 L 0.351562 22.9375 C 0.417969 22.929688 0.480469 22.917969 0.546875 22.917969 C 1.257812 22.917969 1.835938 23.496094 1.835938 24.207031 C 1.835938 24.917969 1.257812 25.496094 0.546875 25.496094 C 0.480469 25.496094 0.417969 25.484375 0.351562 25.476562 L 0.351562 28.089844 C 0.417969 28.078125 0.480469 28.070312 0.546875 28.070312 C 1.257812 28.070312 1.835938 28.644531 1.835938 29.355469 C 1.835938 30.066406 1.257812 30.644531 0.546875 30.644531 C 0.480469 30.644531 0.417969 30.632812 0.351562 30.625 L 0.351562 33.238281 C 0.417969 33.226562 0.480469 33.21875 0.546875 33.21875 C 1.257812 33.21875 1.835938 33.792969 1.835938 34.503906 C 1.835938 35.214844 1.257812 35.792969 0.546875 35.792969 C 0.480469 35.792969 0.417969 35.78125 0.351562 35.773438 L 0.351562 38.5625 C 5.367188 38.5625 9.46875 42.664062 9.46875 47.675781 C 9.46875 47.675781 75.03125 47.675781 75.03125 47.675781 C 75.03125 42.730469 79.027344 38.671875 83.953125 38.566406 L 83.953125 35.792969 C 83.242188 35.792969 82.667969 35.214844 82.667969 34.503906 C 82.667969 33.792969 83.242188 33.21875 83.953125 33.21875 L 83.953125 30.644531 C 83.242188 30.644531 82.667969 30.066406 82.667969 29.355469 C 82.667969 28.644531 83.242188 28.070312 83.953125 28.070312 L 83.953125 25.496094 C 83.242188 25.496094 82.667969 24.917969 82.667969 24.207031 C 82.667969 23.496094 83.242188 22.917969 83.953125 22.917969 L 83.953125 20.34375 C 83.242188 20.34375 82.667969 19.769531 82.667969 19.058594 C 82.667969 18.347656 83.242188 17.769531 83.953125 17.769531 L 83.953125 15.195312 C 83.242188 15.195312 82.667969 14.621094 82.667969 13.910156 C 82.667969 13.199219 83.242188 12.621094 83.953125 12.621094 L 83.953125 9.847656 C 79.09375 9.746094 75.136719 5.789062 75.035156 0.925781 Z M 75.035156 0.925781 " fill-opacity="1" fill-rule="nonzero"/></g><path fill="#7cfc00" d="M 71.585938 5.101562 C 72.910156 8.929688 75.949219 11.96875 79.777344 13.292969 L 79.777344 35.132812 C 75.902344 36.5 72.84375 39.605469 71.539062 43.5 L 12.972656 43.5 C 11.652344 39.511719 8.515625 36.375 4.527344 35.054688 L 4.527344 13.34375 C 8.425781 12.039062 11.53125 8.976562 12.898438 5.101562 L 71.585938 5.101562 M 71.800781 4.804688 L 12.683594 4.804688 C 11.367188 8.75 8.195312 11.871094 4.230469 13.128906 L 4.230469 35.269531 C 8.285156 36.539062 11.488281 39.746094 12.757812 43.796875 L 71.753906 43.796875 C 73.011719 39.835938 76.132812 36.664062 80.074219 35.34375 L 80.074219 13.078125 C 76.160156 11.796875 73.082031 8.71875 71.800781 4.804688 Z M 71.800781 4.804688 " fill-opacity="1" fill-rule="nonzero"/><g transform="matrix(1, 0, 0, 1, 6, 8)"><g clip-path="url(#6b04efaab0)"><g fill="#3c3c3b" fill-opacity="1"><g transform="translate(0.695001, 24.187598)"><g><path d="M 1.21875 -7.875 C 1.488281 -9.40625 2.078125 -10.785156 2.984375 -12.015625 C 3.898438 -13.242188 5.019531 -14.195312 6.34375 -14.875 C 7.664062 -15.5625 9.054688 -15.90625 10.515625 -15.90625 C 12.203125 -15.90625 13.613281 -15.488281 14.75 -14.65625 C 15.882812 -13.832031 16.613281 -12.671875 16.9375 -11.171875 L 14.484375 -11.171875 C 14.210938 -12.085938 13.703125 -12.796875 12.953125 -13.296875 C 12.210938 -13.804688 11.296875 -14.0625 10.203125 -14.0625 C 9.097656 -14.0625 8.0625 -13.804688 7.09375 -13.296875 C 6.125 -12.796875 5.304688 -12.070312 4.640625 -11.125 C 3.984375 -10.1875 3.539062 -9.101562 3.3125 -7.875 C 3.238281 -7.476562 3.203125 -7.023438 3.203125 -6.515625 C 3.203125 -5.046875 3.640625 -3.878906 4.515625 -3.015625 C 5.390625 -2.148438 6.554688 -1.71875 8.015625 -1.71875 C 9.554688 -1.71875 10.90625 -2.175781 12.0625 -3.09375 C 13.226562 -4.019531 14.03125 -5.273438 14.46875 -6.859375 L 8.1875 -6.859375 L 8.484375 -8.484375 L 16.9375 -8.484375 L 16.65625 -6.90625 C 16.300781 -5.613281 15.6875 -4.425781 14.8125 -3.34375 C 13.9375 -2.269531 12.875 -1.421875 11.625 -0.796875 C 10.382812 -0.171875 9.070312 0.140625 7.6875 0.140625 C 6.394531 0.140625 5.25 -0.125 4.25 -0.65625 C 3.25 -1.195312 2.46875 -1.957031 1.90625 -2.9375 C 1.351562 -3.914062 1.078125 -5.035156 1.078125 -6.296875 C 1.078125 -6.804688 1.125 -7.332031 1.21875 -7.875 Z M 1.21875 -7.875 "/></g></g></g><g fill="#3c3c3b" fill-opacity="1"><g transform="translate(18.250292, 24.187598)"><g><path d="M 0.90625 -6.234375 C 1.125 -7.492188 1.578125 -8.597656 2.265625 -9.546875 C 2.953125 -10.503906 3.785156 -11.242188 4.765625 -11.765625 C 5.753906 -12.296875 6.804688 -12.5625 7.921875 -12.5625 C 9.003906 -12.5625 9.898438 -12.328125 10.609375 -11.859375 C 11.316406 -11.398438 11.804688 -10.816406 12.078125 -10.109375 L 12.484375 -12.359375 L 14.546875 -12.359375 L 12.359375 0 L 10.28125 0 L 10.71875 -2.296875 C 10.175781 -1.578125 9.460938 -0.976562 8.578125 -0.5 C 7.691406 -0.03125 6.710938 0.203125 5.640625 0.203125 C 4.679688 0.203125 3.832031 0 3.09375 -0.40625 C 2.351562 -0.820312 1.78125 -1.414062 1.375 -2.1875 C 0.96875 -2.957031 0.765625 -3.84375 0.765625 -4.84375 C 0.765625 -5.300781 0.8125 -5.765625 0.90625 -6.234375 Z M 11.390625 -6.203125 C 11.453125 -6.515625 11.484375 -6.851562 11.484375 -7.21875 C 11.484375 -8.3125 11.15625 -9.175781 10.5 -9.8125 C 9.84375 -10.457031 9.015625 -10.78125 8.015625 -10.78125 C 7.242188 -10.78125 6.507812 -10.597656 5.8125 -10.234375 C 5.113281 -9.878906 4.515625 -9.351562 4.015625 -8.65625 C 3.515625 -7.96875 3.179688 -7.160156 3.015625 -6.234375 C 2.960938 -5.910156 2.9375 -5.5625 2.9375 -5.1875 C 2.9375 -4.070312 3.257812 -3.195312 3.90625 -2.5625 C 4.550781 -1.925781 5.378906 -1.609375 6.390625 -1.609375 C 7.148438 -1.609375 7.878906 -1.789062 8.578125 -2.15625 C 9.285156 -2.519531 9.890625 -3.050781 10.390625 -3.75 C 10.890625 -4.457031 11.222656 -5.273438 11.390625 -6.203125 Z M 11.5 -15.859375 L 6.21875 -13.296875 L 6.484375 -14.828125 L 11.8125 -17.640625 Z M 11.5 -15.859375 "/></g></g></g><g fill="#3c3c3b" fill-opacity="1"><g transform="translate(33.503989, 24.187598)"><g><path d="M 4.421875 -10.0625 C 4.972656 -10.800781 5.691406 -11.398438 6.578125 -11.859375 C 7.472656 -12.328125 8.4375 -12.5625 9.46875 -12.5625 C 10.945312 -12.5625 12.132812 -12.117188 13.03125 -11.234375 C 13.925781 -10.347656 14.375 -9.144531 14.375 -7.625 C 14.375 -7.1875 14.328125 -6.722656 14.234375 -6.234375 C 14.015625 -4.984375 13.5625 -3.867188 12.875 -2.890625 C 12.1875 -1.910156 11.347656 -1.148438 10.359375 -0.609375 C 9.378906 -0.0664062 8.34375 0.203125 7.25 0.203125 C 6.175781 0.203125 5.273438 -0.03125 4.546875 -0.5 C 3.828125 -0.96875 3.328125 -1.5625 3.046875 -2.28125 L 2.640625 0 L 0.59375 0 L 3.546875 -16.703125 L 5.59375 -16.703125 Z M 12.140625 -6.234375 C 12.203125 -6.546875 12.234375 -6.890625 12.234375 -7.265625 C 12.234375 -8.359375 11.90625 -9.21875 11.25 -9.84375 C 10.601562 -10.46875 9.769531 -10.78125 8.75 -10.78125 C 8 -10.78125 7.269531 -10.59375 6.5625 -10.21875 C 5.851562 -9.851562 5.25 -9.320312 4.75 -8.625 C 4.25 -7.925781 3.914062 -7.117188 3.75 -6.203125 C 3.6875 -5.890625 3.65625 -5.546875 3.65625 -5.171875 C 3.65625 -4.066406 3.984375 -3.195312 4.640625 -2.5625 C 5.296875 -1.925781 6.125 -1.609375 7.125 -1.609375 C 7.894531 -1.609375 8.628906 -1.789062 9.328125 -2.15625 C 10.023438 -2.519531 10.625 -3.050781 11.125 -3.75 C 11.632812 -4.457031 11.972656 -5.285156 12.140625 -6.234375 Z M 12.140625 -6.234375 "/></g></g></g><g fill="#3c3c3b" fill-opacity="1"><g transform="translate(48.757686, 24.187598)"><g><path d="M 6.03125 0.203125 C 4.988281 0.203125 4.070312 -0.0078125 3.28125 -0.4375 C 2.488281 -0.863281 1.875 -1.460938 1.4375 -2.234375 C 1.007812 -3.015625 0.796875 -3.914062 0.796875 -4.9375 C 0.796875 -6.34375 1.117188 -7.625 1.765625 -8.78125 C 2.410156 -9.945312 3.300781 -10.867188 4.4375 -11.546875 C 5.570312 -12.222656 6.835938 -12.5625 8.234375 -12.5625 C 9.273438 -12.5625 10.195312 -12.347656 11 -11.921875 C 11.800781 -11.492188 12.421875 -10.890625 12.859375 -10.109375 C 13.304688 -9.335938 13.53125 -8.4375 13.53125 -7.40625 C 13.53125 -6 13.195312 -4.71875 12.53125 -3.5625 C 11.875 -2.40625 10.972656 -1.488281 9.828125 -0.8125 C 8.691406 -0.132812 7.425781 0.203125 6.03125 0.203125 Z M 6.265625 -1.53125 C 7.242188 -1.53125 8.125 -1.796875 8.90625 -2.328125 C 9.6875 -2.867188 10.300781 -3.578125 10.75 -4.453125 C 11.195312 -5.335938 11.421875 -6.28125 11.421875 -7.28125 C 11.421875 -8.425781 11.085938 -9.300781 10.421875 -9.90625 C 9.765625 -10.519531 8.9375 -10.828125 7.9375 -10.828125 C 6.957031 -10.828125 6.082031 -10.5625 5.3125 -10.03125 C 4.550781 -9.5 3.957031 -8.785156 3.53125 -7.890625 C 3.113281 -7.003906 2.90625 -6.050781 2.90625 -5.03125 C 2.90625 -3.914062 3.222656 -3.050781 3.859375 -2.4375 C 4.492188 -1.832031 5.296875 -1.53125 6.265625 -1.53125 Z M 6.265625 -1.53125 "/></g></g></g><g clip-path="url(#d42afd2de4)"><g fill="#3c3c3b" fill-opacity="1"><g transform="translate(63.199056, 24.187598)"><g><path d="M 4.421875 -10.015625 C 4.921875 -10.828125 5.546875 -11.457031 6.296875 -11.90625 C 7.046875 -12.363281 7.898438 -12.59375 8.859375 -12.59375 L 8.484375 -10.46875 L 7.9375 -10.46875 C 6.875 -10.46875 5.984375 -10.179688 5.265625 -9.609375 C 4.554688 -9.035156 4.078125 -8.070312 3.828125 -6.71875 L 2.640625 0 L 0.59375 0 L 2.78125 -12.359375 L 4.828125 -12.359375 Z M 4.421875 -10.015625 "/></g></g></g></g></g></g></g></g></svg>